<?xml version="1.0" encoding="UTF-8"?>
<svg id="Layer_2" data-name="Layer 2" xmlns="http://www.w3.org/2000/svg" viewBox="0 0 707.937 194.037">
  <defs>
    <style>
      .cls-1 {
        stroke: #2ee0e6;
      }

      .cls-1, .cls-2, .cls-3 {
        fill: none;
        stroke-linecap: round;
        stroke-linejoin: round;
        stroke-width: 2px;
      }

      .cls-2 {
        stroke: #ff2f00;
      }

      .cls-3 {
        stroke: #3fa9f5;
      }

      .cls-4 {
        font-family: Inter-Medium, Inter;
        font-size: 48px;
        font-variation-settings: 'opsz' 14, 'wght' 500;
        font-weight: 500;
      }

      .cls-4, .cls-5 {
        fill: #1a1a1a;
      }

      .cls-5 {
        font-family: Inter-Bold, Inter;
        font-size: 96px;
        font-variation-settings: 'opsz' 14, 'wght' 700;
        font-weight: 700;
      }
    </style>
  </defs>
  <g id="Layer_1-2" data-name="Layer 1">
    <g>
      <text class="cls-5" transform="translate(236.702 107.912)"><tspan x="0" y="0">Sapru Lab</tspan></text>
      <text class="cls-4" transform="translate(519.64 161.024)"><tspan x="0" y="0">at UCLA</tspan></text>
    </g>
    <g id="Layer_2-2" data-name="Layer 2">
      <g>
        <g>
          <polyline class="cls-3" points="61.807 2.622 66.341 1 56.294 7.192 72.43 1.211 52.96 11.154 75.924 2.304 48.519 16.078 78.858 3.714"/>
          <polyline class="cls-3" points="21.604 25.615 37.271 15.426 25.024 25.951 39.999 16.396 27.979 26.802 43.193 17.257 31.069 27.879 79.959 4.349 33.62 28.823 82.011 5.68 36.96 30.047 84.442 7.486 39.909 31.043 86.369 9.078 42.756 31.863 69.138 17.6 45.671 32.491 65.71 21.317 49.473 32.812 62.273 25.477"/>
          <polyline class="cls-3" points="74.008 14.84 87.494 10.066 77.554 16.088 89.468 11.889 79.343 17.467 90.97 13.345 81.074 18.997 92.532 14.902 82.726 20.565 94.074 16.472 84.315 22.14 95.595 18.032 85.805 23.652 97.051 19.519 87.116 24.997 98.361 20.829 88.871 26.788 100.156 22.562 90.639 28.555 102.028 24.249 92.469 30.316 104.101 25.883 94.056 31.758 106.182 27.122 95.505 32.999 109.176 27.807 97.494 34.544 117.204 27.366 99.403 35.845 126.271 26.566 101.189 36.888 131.547 26.685 103.08 37.798 135.159 27.193 105.845 38.754 138.573 28.102 108.546 39.29 140.74 28.944 112.185 39.501 142.638 29.888 118.058 39.018 144.395 30.98 126.128 37.763 145.821 32.057 132.831 37.234 147.136 33.24 136.006 37.707 148.168 34.335 137.879 38.972 149.314 35.765 138.968 40.416 150.276 37.185 139.743 41.774 151.035 38.486 140.424 43.188 151.725 39.829 141.091 44.756 152.396 41.316 141.655 46.203 152.956 42.69 142.119 47.451 153.402 43.876 142.683 48.993 153.927 45.347 143.221 50.438 154.409 46.731 143.803 51.927 154.916 48.164 144.323 53.161 155.365 49.355 144.957 54.541 155.916 50.692 145.607 55.788 156.489 51.903 146.222 56.84 157.068 52.918 146.984 57.977 157.866 53.992 147.978 59.229 159.273 55.052 148.999 60.286 161.335 55.716 150.032 61.171 163.608 56.155 151.171 61.964 166.047 56.496 152.777 62.823 169.181 56.849 154.83 63.612 172.577 57.228 156.965 64.183 175.429 57.62 159.241 64.606 177.867 58.063 161.785 64.922 180.021 58.589 164.436 65.147 181.811 59.177 167.412 65.338 183.426 59.891 170.664 65.571 184.868 60.779 173.256 65.851 185.838 61.622 175.262 66.264 186.532 62.471 175.961 67.073 187.025 63.309 175.718 68.581 187.439 64.494 175.091 70.166 187.577 65.691 174.326 71.741 187.485 66.89 173.439 73.428 187.171 68.207 172.48 75.236 186.623 69.676 171.763 76.66 186.045 70.893 171.077 78.162 185.31 72.248 170.467 79.742 184.419 73.767 170.047 81.195 183.504 75.269 169.811 82.535 182.612 76.751 169.767 83.903 181.704 78.367 169.927 85.026 181.028 79.77 170.296 86.139 180.606 81.164 170.742 87.002 180.873 82.059 171.422 87.965 181.663 82.923 172.23 88.841 182.638 83.682 172.951 89.487 183.482 84.243 174.007 90.291 184.672 84.956 174.95 90.918 185.688 85.529 176.125 91.625 186.9 86.199 177.252 92.257 188.005 86.825 178.14 92.739 188.836 87.323 178.99 93.206 189.6 87.819 179.952 93.757 190.425 88.419 180.94 94.371 191.222 89.106 181.783 94.987 191.859 89.798 182.477 95.842 192.423 90.671 180.454 97.892 192.7 91.372 167.186 107.488 192.854 92.348 163.99 111.07 192.742 93.459 162.68 113.247 192.365 94.606 161.9 115.073 191.65 95.947 161.323 116.931 190.19 97.84 161.015 118.247 188.157 99.824 160.744 119.697 181.957 104.522 160.565 120.873 171.738 112.253 160.379 122.262 170.517 114.265 160.22 123.533 170.122 115.599 160.046 124.852 169.827 116.892 159.858 126.102 169.601 118.061 159.622 127.4 169.394 119.219 159.314 128.729 169.197 120.338 158.494 130.877 168.914 121.835"/>
          <polyline class="cls-3" points="138.565 148.715 151.734 134.401 141.39 146.952 153.789 133.755 143.11 146.229 155.741 132.979 144.746 145.635 168.777 122.496 146.642 144.996 168.431 123.976 148.646 144.316 167.966 125.629 150.259 143.726 167.495 127.016 152.398 142.838 166.708 128.919 154.794 141.638 165.548 131.142 157.851 139.673 163.544 134.097"/>
          <polyline class="cls-3" points="132.512 145.021 135.533 141.524 128.351 151.78 139.652 138.483 126.034 156.289 141.834 137.414 122.484 163.139 144.132 136.54"/>
          <polyline class="cls-3" points="8.968 11.106 12.041 9.01 6.844 15.841 17.394 8.574 6.565 20.194 21.892 9.523 6.895 23.886 25.591 10.744 7.401 26.907 28.587 11.899 8.163 30.376 32.041 13.315 9.024 33.7 35.417 14.699 9.803 36.462 20.119 27.856 10.589 39.123 20.448 30.7 11.441 41.955 21.047 33.556 12.19 44.472 21.661 36.024 13.03 47.434 22.426 38.859 13.879 50.8 23.303 41.977 14.42 54.396 24.156 45.029 8.807 64.62 24.903 47.835 3.415 76.074 25.635 50.864 2.953 81.417 26.264 53.945 3.336 85.519 26.725 57.11 4.12 89.144 26.923 60.631 4.94 91.789 26.684 63.914 5.883 94.216 25.597 68.152 6.893 96.378 20.903 76.678 8.283 98.89 14.994 88.66 9.92 101.4 16.505 91.25 11.305 103.262 17.986 92.91 12.946 105.245 19.737 94.676 14.662 107.125 21.54 96.385 16.234 108.716 23.167 97.865 18.032 110.425 25 99.499 19.706 111.947 26.676 101.002 21.408 113.456 28.348 102.539 23.213 115.051 30.09 104.212 24.825 116.508 31.614 105.78 26.464 118.064 33.141 107.481 27.806 119.443 34.372 108.995 29.396 121.339 35.838 111.019 30.691 123.71 37.182 113.199 31.318 126.211 38.137 115.023 31.838 129.228 39.062 117.168 32.268 132.298 39.844 119.414 32.685 135.623 40.546 121.966 33.173 139.583 41.229 125.209 33.569 142.569 41.657 127.832 34.088 146.004 42.081 131.069 34.646 149.12 42.427 134.236 35.326 152.289 42.769 137.697 36.16 155.448 43.15 141.399 37.048 158.175 43.564 144.795 37.88 160.291 43.983 147.551 38.801 162.257 44.519 150.15 40.028 164.385 45.492 152.671 41.014 165.784 46.913 153.138 42.203 167.149 48.877 152.921 43.683 168.394 51.306 152.304 45.176 169.213 53.631 151.576 46.842 169.695 55.989 150.875 48.884 169.778 58.493 150.324 51.096 169.406 60.783 150.11 52.994 168.818 62.458 150.207 55.13 167.98 64.11 150.557 57.484 167.008 65.724 151.227 59.899 166.162 67.253 152.232 62.026 165.762 68.582 153.427 63.619 166.039 69.679 154.656 64.951 167.339 70.844 156.219 65.973 168.883 71.828 157.756 66.899 170.568 72.744 159.37 67.807 172.415 73.647 161.118 68.653 174.26 74.482 162.872 69.347 175.833 75.16 164.375 70.053 177.461 75.842 165.945 70.918 179.461 76.669 167.891 71.724 181.283 77.428 169.686 72.415 182.796 78.076 171.187 73.182 184.383 78.791 172.779 74.106 186.159 79.657 174.567 74.989 187.687 80.5 176.089 75.993 189.199 81.516 177.503 76.99 190.455 82.757 178.22 78.069 191.529 85.122 176.73 79.145 192.311 89.355 171.577 80.261 192.813 94.304 165.41 81.518 193.037 97.801 162.067 82.757 192.924 100.003 160.627 84.489 192.248 102.076 159.827 86.299 190.958 103.547 159.613 89.129 187.978 105.051 159.681 93.961 181.387 106.49 160 98.644 175.204 107.635 160.419 101.295 172.928 108.709 160.929 102.557 172.77 109.592 161.426 103.87 173.14 110.708 162.128 104.811 173.591 111.563 162.716 105.713 174.121 112.413 163.323 106.654 174.741 113.321 163.983 107.558 175.375 114.213 164.624 108.523 176.068 115.188 165.287 109.332 176.641 116.025 165.805 110.284 177.282 117.045 166.332 111.174 177.831 118.057 166.69 112.165 178.36 119.365 166.735 113.191 178.79 145.145 136.212 114.249 179.096 147.118 135.641 115.228 179.234 148.767 135.201 116.252 179.212 150.343 134.786 117.743 178.87 135.066 153.572 119.331 178.084 132.224 158.825 121.428 176.398 129.53 164.087"/>
        </g>
        <g>
          <polyline class="cls-1" points="153.723 117.943 177.429 100.785 158.437 115.122 176.607 102.183 163.107 112.659 174.965 104.282"/>
          <polyline class="cls-1" points="84.927 7.746 89.676 6.417 77.582 12.694 96.614 7.041 72.529 16.703 99.632 8.132"/>
          <polyline class="cls-1" points="43.868 19.078 57.75 12.147 47.228 20.253 60.4 13.749 49.815 21.591 62.89 15.175 52.027 22.836 65.231 16.391 54.197 24.098 67.864 17.477 56.569 25.481 101.068 8.817 59.335 27.04 103.839 10.444 62.167 28.518 106.18 12.135 64.997 29.803 108.141 13.767 68.217 30.936 92.386 20.604 72.063 31.666 86.565 25.131"/>
          <polyline class="cls-1" points="96.453 19.021 109.791 15.292 99.299 20.182 111.325 16.82 100.974 21.613 112.722 18.292 102.738 23.376 114.315 20.051 104.156 24.908 115.641 21.56 105.721 26.673 117.143 23.287 107.169 28.341 118.566 24.906 108.568 29.947 119.98 26.455 109.905 31.444 121.372 27.887 111.19 32.828 122.799 29.188 112.74 34.393 124.973 30.53 114.114 35.663 128.882 31.058 115.573 36.876 135.769 30.824 117.54 38.274 144.44 30.625 119.507 39.388 149.372 31.107 121.814 40.344 152.793 31.888 124.482 41.049 155.229 32.766 128.435 41.499 157.391 33.847 133.51 41.382 158.951 34.855 140.197 40.722 160.166 35.823 147.374 40.296 161.374 37.007 150.513 40.897 162.293 38.139 151.398 41.932 162.977 39.176 151.951 43.119 163.572 40.29 152.357 44.41 164.077 41.484 152.701 45.928 164.529 42.881 152.918 47.158 164.806 44.016 153.132 48.608 165.054 45.36 153.344 50.164 165.257 46.812 153.548 51.578 165.402 48.145 153.795 53.023 165.537 49.521 154.106 54.465 165.688 50.913 154.492 55.845 165.881 52.26 155.008 57.234 166.175 53.631 155.549 58.345 166.564 54.725 156.226 59.423 167.323 55.724 157.221 60.62 168.968 56.668 158.436 61.7 171.005 57.456 159.587 62.499 172.809 58.032 160.862 63.215 174.654 58.563 162.371 63.908 176.651 59.108 163.935 64.503 178.528 59.617 166.035 65.17 180.785 60.26 168.014 65.707 182.663 60.856 169.861 66.161 184.231 61.422 171.788 66.612 185.701 62.04 173.965 67.137 187.176 62.805 175.572 67.561 188.147 63.436 177.226 68.073 189.042 64.188 178.734 68.772 189.815 65.1 178.812 70.01 190.338 66.11 177.306 71.833 190.582 67.184 175.626 73.51 190.567 68.106 173.563 75.484 190.316 69.189 171.508 77.507 189.785 70.364 169.354 79.859 188.735 71.92 167.998 81.6 187.558 73.293 166.88 83.362 185.901 74.962 166.112 84.98 183.879 76.825 165.619 86.611 181.385 79.068 165.452 87.723 179.564 80.774 165.41 88.883 177.798 82.602 165.479 89.934 176.561 84.18 165.643 91.002 175.984 85.527 165.89 92.067 175.967 86.647 166.152 92.971 176.113 87.547 166.502 94.019 176.38 88.567 166.863 95.002 176.683 89.514 167.258 96.046 177.037 90.511 167.584 96.923 177.338 91.343 167.944 97.989 177.685 92.343 168.175 98.797 177.92 93.093 168.365 99.667 178.136 93.886 168.465 100.818 178.342 94.889 168.226 101.935 178.448 95.712"/>
          <polyline class="cls-1" points="147.402 114.259 150.854 111.437 144.208 118.295 156.688 108.124 142.817 120.873 161.039 106.095 141.703 123.46 178.477 96.153 140.817 125.884 178.453 97.283 140.119 127.987 178.294 98.367 139.408 130.215 177.927 99.637 138.701 132.393 151.209 120.309 137.93 134.592 149.944 122.651 136.458 137.88 148.93 125.046"/>
          <polyline class="cls-1" points="118.336 153.667 128.546 140.364 120.227 152.58 129.762 140.306 121.697 152.185 131.077 140.211 123.188 151.936 132.604 140.021 124.398 151.79 134.019 139.71 125.955 151.623 148.531 126.077 127.305 151.459 147.782 128.09 128.582 151.255 147.093 129.97 129.847 150.983 146.401 131.813 131.346 150.543 145.539 133.979 133.381 149.675 144.268 136.856 135.606 148.298 142.677 139.91"/>
          <polyline class="cls-1" points="111.859 149.506 114.695 145.611 107.431 158.37 118.834 142.309 104.324 165.335 120.787 141.462"/>
          <polyline class="cls-1" points="17.868 61.227 40.634 40.255 23.784 58.721 40.184 43.839 28.197 57.314 39.379 47.202"/>
          <polyline class="cls-1" points="5.331 47.99 8.391 44.749 3.581 53.977 14.9 42.032 3.578 57.524 19.337 40.996 4.161 61.706 41.097 28.073 4.825 64.453 41.014 30.646 5.738 67.392 40.948 33.591 6.618 69.794 40.874 36.161 7.777 72.597 40.705 39.381 8.968 75.207 16.516 65.571 10.4 78.121 17.723 68.602 11.501 80.24 18.732 70.728 12.804 82.675 19.959 73.139 14.021 84.896 21.121 75.323 15.33 87.259 22.382 77.634 16.636 89.622 23.649 79.934 17.773 91.72 24.76 81.963 18.859 93.787 25.827 83.951 20.226 96.566 27.194 86.584 21.302 99.063 28.313 88.876 22.08 101.478 29.25 90.914 22.523 105.473 30.371 93.619 22.506 109.64 31.256 96.065 22.287 114.474 32.074 98.798 22.031 119.643 32.758 101.844 21.914 124.865 33.246 105.343 22.013 129.095 33.463 108.714 22.399 133.732 33.457 113.256 23.007 137.622 33.216 118.005 23.729 140.761 32.882 122.583 24.51 143.356 32.593 126.837 25.357 145.613 32.437 130.778 26.413 147.94 32.502 134.867 27.724 150.294 33.177 138.364 29.059 152.222 34.729 139.764 30.579 153.96 36.674 140.583 31.837 155.103 38.271 141.026 33.293 156.154 40.073 141.401 35.032 157.086 42.138 141.741 36.43 157.639 43.726 141.992 38.116 158.124 45.548 142.32 39.649 158.422 47.113 142.673 41.16 158.633 48.578 143.093 42.941 158.811 50.211 143.704 44.618 158.963 51.661 144.423 46.252 159.15 53.007 145.278 48.221 159.514 54.562 146.551 49.921 160.108 55.87 147.958 51.456 161.289 57.123 149.675 52.381 162.862 58.035 151.188 53.125 164.514 58.811 152.671 54.047 166.866 59.778 154.772 54.908 169.26 60.659 156.952 55.615 171.316 61.363 158.858 56.447 173.777 62.167 161.187 57.311 176.299 62.973 163.635 58.016 178.287 63.612 165.61 58.868 180.562 64.369 167.916 59.577 182.317 64.991 169.731 60.293 183.954 65.618 171.45 61.107 185.627 66.336 173.227 62.14 187.453 67.294 175.111 63.206 189.001 68.571 176.108 64.196 190.134 71.12 173.761 65.424 191.158 75.889 167.425 66.66 191.792 79.838 162.87 68.034 192.058 82.637 160.672 69.645 191.774 84.818 159.697 71.307 190.854 86.377 159.442 73.801 188.443 87.934 159.59 76.991 184.136 89.165 159.98 81.776 177.18 90.475 160.643 85.003 173.925 91.703 161.468 86.571 174.022 92.845 162.389 87.501 174.614 93.684 163.139 88.395 175.333 94.524 163.937 89.487 176.332 95.576 164.975 90.481 177.301 96.551 165.943 91.255 178.071 97.325 166.686 92.008 178.811 98.09 167.379 92.753 179.516 98.86 168.014 93.603 180.276 99.769 168.648 94.655 181.113 100.99 169.165 95.51 181.691 102.694 168.249 96.55 182.25 122.805 140.909 97.633 182.63 124.465 140.642 98.699 182.789 125.879 140.503 99.93 182.689 127.292 140.418 101.3 182.205 116.287 156.722 103.123 180.962 112.886 163.85 106.071 177.506 109.41 171.534"/>
          <polyline class="cls-1" points="32.006 5.109 35.346 3.41 29.268 9.378 40.545 3.54 28.267 13.565 44.664 4.892 27.9 17.243 47.946 6.423 27.792 20.321 50.545 7.826 27.785 23.939 53.477 9.539 27.823 27.507 56.267 11.237 27.821 30.574 41.945 21.171 27.703 33.677 41.381 24.2 26.948 37.512 41.138 27.232"/>
        </g>
        <g>
          <polyline class="cls-2" points="152.436 36.156 139.55 16.059 148.121 25.834 144.703 20.505"/>
          <polyline class="cls-2" points="31.204 139.663 18.138 119.371 31.203 135.993 18.16 115.739 31.471 132.732 1.819 86.717 31.826 129.464 1 81.632 32.222 125.851 1.111 77.578 32.503 122.671 1.645 74.793 32.677 118.586 2.651 72 32.523 114.629 3.737 69.966 31.747 109.88 4.917 68.256 16.697 83.037 6.193 66.75 18.281 81.304 7.84 65.113 19.863 79.93 9.429 63.75 21.353 78.751 10.929 62.586 23.276 77.306 12.877 61.178 24.764 76.187 14.396 60.108 26.458 74.863 16.133 58.849 28.206 73.381 17.922 57.429 30.051 71.59 19.706 55.544 31.44 69.999 20.268 52.669 32.666 68.31 20.117 48.844 33.818 66.304 19.739 44.466 34.878 63.652 19.333 39.542 35.53 61.045 19.188 35.7 35.919 58.247 19.283 32.447 36.073 54.473 19.698 29.079 35.908 49.761 20.54 25.931 35.577 45.074 21.662 23.497 35.328 39.981 23.275 21.291 35.557 36.362 24.896 19.831 38.093 35.679 27.06 18.569 40.748 36.049 29.044 17.899 43.859 36.647 31.512 17.497 47.2 37.328 34.394 17.464 49.696 37.775 36.741 17.677 52.776 38.171 39.903 18.198 55.1 38.303 42.505 18.757 57.687 38.216 45.624 19.494 60.237 37.813 48.912 20.234 62.579 37.069 52.077 20.765 64.687 35.995 54.831 20.693 66.247 34.899 56.28 19.424 67.978 33.345 57.732 17.437 69.577 31.578 59.102 15.314 70.843 29.959 60.237 13.49 72.214 28.007 61.545 11.441 73.494 26.058 62.858 9.543 74.844 23.964 64.342 7.656 76.028 22.204 65.703 6.171 77.611 20.088 67.578 4.509 79.299 18.348 69.545 3.2 82.482 19.023 71.66 2.216 86.993 22.392 73.641 1.651 91.617 26.13 75.678 1.366 96.554 29.643 78.382 1.402 100.693 31.796 81.503 1.968 103.717 32.786 84.567 3.015 106.857 33.266 88.803 5.192 109.456 33.273 93.44 8.362 111.702 33.043 98.377 12.312 114.069 32.6 103.69 16.447 116.117 32.076 106.983 17.858 118.481 31.358 109.558 17.468 120.712 30.605 111.874 16.846 123.17 29.742 114.387 16.067 125.636 28.912 116.877 15.274 127.795 28.271 119.033 14.627 130.089 27.786 121.261 14.038"/>
          <polyline class="cls-2" points="141.073 46.762 137.881 41.78 145.698 50.574 133.681 31.823 148.984 52.094 124.2 13.447 151.866 53.013 126.324 13.178 155.389 53.837 129.265 13.083 158.51 54.406 132.202 13.356 161.508 54.916 135.379 14.135 164.01 55.389 138.401 15.41 167.539 56.382 157.203 40.221"/>
          <polyline class="cls-2" points="65.115 164.616 51.621 143.599 59.884 152.86 56.427 147.476"/>
          <polyline class="cls-2" points="58.046 181.702 54.526 176.216 63.071 185.376 34.631 141.102 65.539 185.828 36.928 141.279 68.134 185.503 39.804 141.381 70.255 184.683 42.531 141.497 72.232 183.524 45.436 141.775 73.849 182.328 48.169 142.311 75.564 180.865 67.224 167.852 77.175 179.35 69.067 166.698 78.824 177.703 70.804 165.185 80.524 175.966 72.558 163.532 82.086 174.394 74.147 162.001 83.914 172.661 75.982 160.278 85.749 171.15 77.777 158.702 87.441 170.327 79.242 157.523 90.369 171.443 80.761 156.435 94.311 173.807 82.513 155.371 98.799 176.176 84.815 154.315 102.463 177.195 87.399 153.636 104.803 177.253 89.635 153.526 106.792 176.9 92.097 153.907 108.873 176.11 95.488 155.159 110.74 175.024 99.497 157.419 112.68 173.498 104.205 160.221 114.471 171.69 107.595 160.913 116.025 169.784 109.03 158.821 117.54 167.622 110.353 156.357 118.96 165.319 111.622 153.817 120.121 163.256 112.701 151.624 121.44 160.762 113.994 149.09 122.666 158.356 115.277 146.773 123.873 156.011 116.61 144.625 125.154 153.669 118.081 142.579 126.62 151.344 119.78 140.62 128.442 149.912 121.506 139.035 130.499 149.323 123.174 137.835 132.437 148.961 124.769 136.932 135.085 148.572 127.048 135.959 137.696 148.188 129.45 135.244 139.835 147.8 131.562 134.809 141.813 147.333 133.645 134.503 143.983 146.655 136.084 134.244 146.207 145.722 138.75 134.001 147.937 144.783 140.924 133.756 149.527 143.727 142.97 133.415 151.271 142.301 145.014 132.46 152.669 140.91 145.71 129.965 154.134 139.173 146.204 126.703 155.604 137.003 146.641 122.91 156.774 134.805 147.101 119.595 157.839 132.191 147.778 116.374 158.739 129.144 148.746 113.438 159.314 126.474 149.711 111.382 159.801 123.518 150.884 109.504 160.251 120.544 152.181 107.864 160.747 117.877 153.496 106.485 161.485 115.517 154.921 105.203 163.124 113.784 156.752 103.773 164.951 112.463 158.607 102.493 166.977 111.156 160.653 101.216 168.888 109.991 162.588 100.088 170.469 109.042 164.195 99.179 172.588 107.75 166.357 97.952 174.729 106.376 168.544 96.648 176.315 105.285 170.138 95.568 178.175 103.883 161.083 77.039 179.829 102.473 161.325 73.414 181.192 101.134 161.948 70.916 182.516 99.578 162.782 68.592 183.952 97.378 163.936 65.952 184.876 95.251 164.921 63.924 185.432 91.783 166.127 61.481 176.284 73.831 167.077 59.401 177.243 71.334 167.876 56.656 178.233 69.351 160.082 40.936 179.592 66.838 163.503 41.648 180.757 64.653 166.456 42.26 181.91 62.258 169.62 43.011 182.973 59.428 173.185 44.098 183.594 55.929 177.174 45.872"/>
          <polyline class="cls-2" points="22.722 154.755 19.836 150.273 27.622 158.502 17.6 142.933 31.394 159.721 17.072 137.472 34.286 160.117 17.075 133.377 37.273 160.225 17.313 129.213 39.541 160.205 17.584 126.089 41.784 160.194 17.866 123.03 44.311 160.305 31.462 140.326 47.055 161.024 34.214 141.052"/>
        </g>
      </g>
    </g>
  </g>
</svg>