<?xml version="1.0" encoding="UTF-8"?>
<svg id="Layer_2" data-name="Layer 2" xmlns="http://www.w3.org/2000/svg" viewBox="0 0 1248.407 669.106">
  <defs>
    <style>
      .cls-1 {
        fill: none;
        stroke: #3fa9f5;
        stroke-linecap: round;
        stroke-linejoin: round;
      }
    </style>
  </defs>
  <g id="Layer_1-2" data-name="Layer 1">
    <g>
      <path class="cls-1" d="m740.721,422.439c7.822,3.16,54.844-135.743,54.844-135.743,2.569,1.038-51.509,124.479-46.242,126.607,0,0,41.061-119.258,47.184-116.784,6.923,2.797-32.26,89.734-31.364,90.096,2.589,1.046,25.471-64.161,25.859-64.004"/>
      <path class="cls-1" d="m689.478,300.705c3.803,1.536,20.936-53.567,21.543-53.321,1.957.791-12.288,38.773-10.24,39.601.663.268,14.607-36.828,14.841-36.734,1.874.757-7.414,28.269-6.594,28.6,1.856.75,11.325-34.916,13.717-33.95,0,0-9.829,32.652-8.493,33.192,1.053.426,14.274-35.329,14.274-35.329,1.395.564-4.366,25.138-4.366,25.138.209.085,9.71-24.033,9.71-24.033.181.073-5.376,24.666-4.376,25.07.302.122,11.519-32.986,13.073-32.358,2.309.933-8.767,30.629-6.905,31.381,1.724.697,10.044-30.355,11.953-29.584.49.198-4.139,21.824-3.971,21.893,0,0,8.752-24.044,9.579-23.709,0,0-6.19,28.315-6.171,28.323,1.062.429,11.211-29.52,11.826-29.271l-6.379,28.171c.623.252,10.336-27.902,11.142-27.576.081.033-6.689,27.593-6.238,27.775.551.222,9.744-29.517,11.62-28.759.778.314-4.518,23.344-3.868,23.606,1.16.469,6.821-19.937,7.882-19.508,0,0-2.751,18.655-2.351,18.817,1.031.417,5.595-15.549,6.186-15.31,1.133.458-7.022,27.549-5.543,28.147,1.713.692,10.576-28.449,11.365-28.13.606.245-12.443,40.464-11.155,40.985,0,0,14.252-37.265,14.943-36.985.247.1-16.764,46.402-13.614,47.675,2.036.822,18.49-46.312,18.68-46.235,2.268.916-26.714,70.802-24.075,71.869,4.513,1.823,26.162-64.753,26.162-64.753"/>
      <path class="cls-1" d="m660.378,309.038s4.454-11.967,4.782-11.835c0,0-10.037,32.502-7.942,33.348,2.544,1.028,19.205-55.247,21.884-54.165,4.164,1.682-27.552,70.181-24.042,71.599,5.356,2.164,28.886-81.003,32.188-79.669,5.945,2.402-37.743,87.76-30.806,90.563,0,0,36.995-100.775,40.194-99.483,5.207,2.104-36.081,101.193-35.875,101.276,0,0,43.252-109.774,44.197-109.392.091.037-49.837,120.182-44.266,122.433.458.185,19.568-54.065,21.524-53.275.871.352-23.951,59.643-19.26,61.538,1.605.649,17.224-44.435,17.851-44.182,1.805.729-14.288,44.32-12.495,45.044,1.447.584,12.416-32.604,13.067-32.341,2.786,1.126-12.31,42.319-12.092,42.407,1.554.628,13.6-38.741,15.364-38.028.285.115-12.656,42.797-11.864,43.117.71.287,10.001-28.51,11.306-27.983,1.688.682-7.074,29.971-7.074,29.971,2.031.821,10.082-29.357,11.611-28.739,1.689.682-6.55,29.741-6.335,29.828.334.135,8.583-21.382,8.631-21.363.914.369-6.704,28.264-5.685,28.676,1.087.439,8.71-26.019,10.26-25.393.531.214-7.016,25.904-5.603,26.475,1.236.499,6.048-18.418,7.246-17.934.713.288-6.669,27.394-5.798,27.745,1.08.437,10.529-26.581,10.71-26.508l-4.774,24.575s6.972-20.733,8.18-20.245c1.015.41-5.474,22.938-3.944,23.556.361.146,7.769-21.858,8.682-21.489"/>
      <path class="cls-1" d="m203.032,392.098c.08.032,5.769-16.181,6.43-15.914,1.201.485-19.817,50.805-15.869,52.401,5.184,2.094,31.071-76.904,31.071-76.904,4.262,1.722-35.248,84.628-29.278,87.04,0,0,42.016-108.352,43.53-107.74,5.565,2.248-47.772,123.419-44.782,124.627,7.358,2.973,43.36-133.374,52.409-129.718,5.962,2.409-49.452,132.07-48.191,132.58,0,0,53.858-143.661,57.456-142.208,0,0-65.939,154.933-58.144,158.082.412.166,21.623-57.096,22.865-56.593,2.631,1.063-21.078,64.808-20.798,64.921.791.32,14.494-42.076,16.648-41.206,2.441.986-14.829,41.4-11.771,42.636,0,0,14.253-35.993,14.502-35.893,2.114.854-13.154,45.868-12.715,46.046,1.873.757,13.313-32.952,13.313-32.952.76.307-11.838,36.98-10.18,37.65.715.289,12.195-35.148,13.919-34.452.804.325-10.473,32.564-8.407,33.398.965.39,9.462-26.076,10.385-25.703,0,0-12.036,36.254-9.327,37.348,1.715.693,10.499-29.6,11.754-29.092,1.999.807-8.621,30.422-7.073,31.047.986.398,9.114-22.932,9.244-22.88,0,0-5.466,23.301-4.186,23.818.79.319,5.423-18.073,7.038-17.42.92.372-5.505,24.755-4.712,25.075l11.054-27.36s-5.889,28.284-5.715,28.354c.704.284,7.81-19.857,7.993-19.783,1.23.497-3.999,21.905-3.781,21.993,1.281.518,5.892-14.584,5.892-14.584.095.039-2.145,18.12-1.793,18.262.752.304,8.595-22.07,8.872-21.958.07.028-5.956,25.384-4.626,25.921.464.187,8.407-22.557,9.015-22.312.533.215-4.56,24.358-4.56,24.358,1.38.558,5.763-16.53,6.55-16.212.976.395-6.499,26.164-5.817,26.44.625.252,7.619-23.878,9.363-23.174,1.171.473-4.337,22.484-3.868,22.674.747.302,8.698-21.53,8.698-21.53,1.585.64-3.95,21.878-3.748,21.96.573.232,7.877-19.497,7.877-19.497.324.131-3.221,20.684-2.833,20.841,0,0,6.192-18.107,7.158-17.716.561.227-1.468,17.513-1.257,17.599,1.532.619,7.759-19.204,7.759-19.204.719.291-6.183,22.891-4.455,23.589,1.707.689,7.185-17.784,7.185-17.784.323.131-4.113,23.566-4.113,23.566,1.266.512,10.244-29.383,11.643-28.818,0,0-6.936,29.352-6.371,29.581.356.144,6.868-21.608,8.469-20.961.041.017-1.977,15.534-1.025,15.919.745.301,5.229-17.768,6.905-17.091.628.254-3.385,17.464-2.302,17.902,0,0,6.995-21.94,8.602-21.291.833.337-7.825,28.965-6.317,29.574.539.218,10.254-28.4,11.303-27.976,1.185.479-4.651,22.519-3.482,22.991.677.273,5.36-16.944,6.637-16.428.872.352-3.424,21.257-3.08,21.396.072.029,9.095-23.934,9.589-23.735.117.047-3.418,19.053-2.572,19.394,1.802.728,5.772-18.194,7.129-17.645,1.279.517-5.166,24.34-4.898,24.449,1.733.7,8.599-23.563,9.391-23.243.109.044-4.546,22.775-4.079,22.964.955.386,10.027-29.968,11.816-29.246.438.177-3.731,23.373-3.731,23.373,1.543.624,6.414-15.875,6.414-15.875.538.218-3.649,21.567-3.028,21.818,1.591.643,10.325-25.555,10.325-25.555.054.022-5.108,21.72-3.556,22.347,0,0,10.431-26.838,10.785-26.695.434.175-5.704,26.302-5.064,26.561,1.373.555,8.142-22.162,8.84-21.88.045.018-5.922,25.227-4.56,25.777.164.066,10.587-27.746,11.123-27.53.462.186-4.708,22.491-3.939,22.801,1.828.739,9.55-24.762,9.941-24.605,1.805.729-7.499,29.894-6.889,30.141.105.042,8.168-25.38,9.961-24.655,0,0-3.975,19.506-2.542,20.085.382.154,6.449-18.737,7.413-18.347.214.086-5.35,23.058-4.073,23.574.915.369,10.308-28.67,11.404-28.227,1.103.446-5.453,23.809-4.255,24.293,1.835.742,10.802-27.641,11.116-27.514,1.511.61-7.764,27.596-6.134,28.255.644.26,8.628-21.354,8.628-21.354,1.036.419-4.575,22.993-3.746,23.328,0,0,8.15-23.118,9.173-22.704.29.117-1.078,14.732-1.078,14.732,1.691.683,5.896-17.25,6.819-16.877,1.115.451-4.038,20.91-3.171,21.261.101.041,7.405-23.654,9.255-22.906.525.212-7.051,25.486-5.336,26.178.709.286,9.657-25.836,10.329-25.564,0,0-5.069,23.066-4.081,23.465.961.388,9.652-25.069,10.062-24.904,1.525.616-5.058,21.139-3.599,21.728,1.575.636,6.001-19.625,7.658-18.955,0,0-3.862,20.457-3.402,20.643,0,0,8.313-21.962,8.794-21.767.897.362-1.674,16.19-.834,16.529.102.041,7.413-19.388,7.774-19.242.717.29-2.638,17.773-1.908,18.068.491.198,9.435-25.151,10.06-24.899,1.941.784-6.696,26.067-5.082,26.719,1.319.533,10.005-24.849,10.035-24.837.38.153-4.079,21.846-3.886,21.924.054.022,6.109-19.011,7.46-18.465.11.045-2.384,18.758-1.835,18.979.448.181,7.852-19.485,7.87-19.478.471.19-4.96,22.738-4.208,23.042.549.222,8.452-22.101,8.862-21.935.736.297-1.544,15.526-1.342,15.608,1.022.413,8.701-21.536,8.701-21.536,1.301.526-4.883,21.685-3.896,22.084,1.007.407,7.84-19.921,8.019-19.849.334.135-5.215,21.627-4.002,22.117.528.213,9.733-28.228,11.17-27.647,1.625.656-5.942,27.039-5.146,27.361.248.1,8.644-25.584,10.099-24.996,1.826.738-6.884,27.154-5.892,27.555,1.68.679,10.656-28.864,11.521-28.514,1.14.46-4.513,23.171-3.764,23.473,0,0,10.375-28.407,11.322-28.024l-3.932,22.868c.643.26,9.058-22.42,9.058-22.42.272.11-7.431,27.889-6.227,28.376.779.315,10.025-30.18,11.889-29.427,1.95.788-6.891,25.66-5.559,26.199.425.172,11.408-28.235,11.408-28.235.574.232-5.743,22.833-4.29,23.419,2.056.831,10.418-27.23,10.92-27.027,0,0-7.878,28.419-5.925,29.208,1.233.498,10.295-31.466,12.374-30.626.166.067-5.213,24.336-4.666,24.556,0,0,9.714-25.104,10.082-24.955.221.089-4.293,24.169-4.293,24.169.648.262,9.42-27.601,10.909-26.999.41.166-7.025,26.602-5.804,27.096.384.155,9.47-26.853,10.656-26.374,0,0-7.731,28.287-6.658,28.72,1.662.671,13.562-34.795,13.988-34.622.71.287-7.625,28.346-6.356,28.859.959.387,10.476-26.716,10.749-26.606,1.117.451-7.946,28.039-6.406,28.661.562.227,12.295-35.719,14.132-34.977.27.109-6.548,28.463-6.061,28.66.986.398,8.572-27.035,10.593-26.219,1.665.673-7.446,26.871-5.661,27.592l11.614-28.745s-6.919,24.812-5.339,25.451c.209.084,10.309-27.551,11.016-27.265,1.305.527-5.243,25.463-4.954,25.58.445.18,12.347-34.889,13.851-34.281,1.127.455-7.05,29.525-6.859,29.602,1.826.738,11.659-31.822,12.689-31.406,1.872.756-9.807,31.58-8.014,32.304.787.318,11.536-28.553,11.536-28.553.435.176-4.654,21.018-3.565,21.458,1.69.683,10.504-30.224,11.972-29.631.753.304-9.711,34.068-8.747,34.458,1.573.635,15.442-38.354,15.489-38.335.181.073-10.371,32.578-7.918,33.57,2.287.924,12.003-35.332,13.956-34.543.668.27-7.361,30.658-6.863,30.859,2.524,1.02,12.706-31.448,12.706-31.448,1.186.479-7.729,30.316-7.257,30.507,2.314.935,15.256-38.069,15.363-38.025,1.274.515-8.06,33.27-7.939,33.319.239.097,12.986-34.556,13.825-34.217,2.145.867-6.906,31.497-6.906,31.497,2.571,1.039,16.009-39.65,16.018-39.647,0,0-12.331,37.444-10.428,38.213.361.146,12.83-38.631,15.218-37.666.692.279-7.62,31.901-7.463,31.964,2.359.953,15.46-38.266,15.46-38.266,0,0-7.965,27.735-6.454,28.345,2.103.85,10.531-32.083,12.621-31.238,0,0-7.789,28.46-6.024,29.173.817.33,13.801-38.618,15.35-37.992,1.379.557-10.241,37.012-9.932,37.137,1.061.429,19.243-47.628,19.243-47.628.75.303-14.699,42.641-12.4,43.57.731.295,20.321-50.297,20.321-50.297,1.833.741-14.884,45.933-13.769,46.384.377.152,25.894-75.854,29.98-74.203,3.145,1.271-23.082,67.728-21.885,68.212,3.143,1.27,22.497-61.581,24.546-60.753,2.777,1.122-17.134,53.961-16.331,54.285.862.348,22.152-65.953,26.016-64.392,1.917.775-21.315,53.042-17.166,54.719,1.085.438,26.973-66.759,26.973-66.759,4.03,1.628-18.608,58.233-18.608,58.233,0,0,33.465-90.369,36.084-89.311.1.04-32.26,86.445-30.178,87.286,8.916,3.602,72.169-178.626,72.169-178.626,13.01,5.257-79.284,173.343-66.514,178.502,9.619,3.886,59.163-167.618,66.521-164.645,8.124,3.282-61.916,166.373-61.567,166.514.056.023,7.58-21.301,8.462-20.944,1.326.536-5.164,25.737-4.792,25.887.411.166,8.799-26.506,10.441-25.842,1.143.462-4.892,24.544-4.316,24.777,0,0,4.99-15.316,6.02-14.9.893.361-2.648,18.395-2.051,18.637,1.018.411,9.2-23.547,9.469-23.438.806.326-4.196,24.132-3.998,24.212.172.069,8.528-21.108,8.528-21.108,0,0-6.855,27.068-5.642,27.558,1.355.547,9.67-26.256,10.477-25.93,1.626.657-8.145,27.12-6.326,27.855.08.032,11.211-29.916,11.964-29.612,1.423.575-4.863,24.839-4.441,25.009.099.04,7.579-22.459,8.864-21.94.49.198-7.511,25.958-5.67,26.702.769.311,8.288-24.103,9.535-23.599,0,0-5.278,24.17-4.101,24.646.171.069,7.535-20.416,8.149-20.168.033.013-3.231,21.183-2.786,21.363,1.067.431,9.438-27.894,11.013-27.258,0,0-5.817,23.752-4.509,24.281.081.033,7.679-19.814,7.96-19.701.61.247-5.167,23.861-4.786,24.015.093.038,8.609-22.927,9.171-22.7,1.95.788-6.472,27.181-5.859,27.429.255.103,10.265-26.912,10.788-26.701.135.055-2.596,19.231-2.139,19.416.698.282,7.623-20.241,8.1-20.049.43.174-4.137,20.584-3.459,20.858,1.106.447,5.52-17.461,6.839-16.928l-3.406,22.008s8.053-22.361,8.897-22.02c.024.01-5.557,26.742-5.557,26.742.226.091,9.456-24.658,9.892-24.483,1.341.542-3.427,17.966-2.468,18.353.589.238,6.827-20.339,8.022-19.856,1.283.518-6.607,25.031-5.189,25.604.37.149,10.434-28.734,11.444-28.326.316.128-5.983,26.366-5.743,26.463,1.602.647,8.219-23.46,9.302-23.022.877.354-1.958,18.288-1.752,18.371,1.769.715,6.791-19.496,7.724-19.119,1.39.562-4.741,21.137-3.314,21.714.019.008,9.609-25.142,10.081-24.951,1.312.53-8.542,29.919-6.726,30.653.538.218,9.794-24.553,9.902-24.509.256.103-4.902,24.551-4.748,24.613l10.316-25.532c.615.248-6.83,25.805-5.002,26.544,1.63.658,10.93-29.528,11.79-29.18.293.118-5.46,22.628-4.059,23.194,1.871.756,8.806-25.507,10.095-24.986,1.763.712-7.391,26.517-5.863,27.135.951.384,11.2-28.242,11.381-28.169.832.336-6.548,26.054-5.655,26.414,1.746.705,7.169-21.913,8.617-21.328,0,0-2.766,20.623-2.726,20.64,0,0,8.597-22.403,8.988-22.245,1.172.473-5.301,26.059-5.301,26.059.497.201,7.248-19.805,7.896-19.543.354.143-2.834,20.814-2.686,20.874.824.333,8.499-21.667,8.718-21.578.074.03-4.31,20.551-3.342,20.942,1.053.425,8.379-24.426,9.66-23.908.873.353-6.246,24.238-4.616,24.897,1.366.552,9.436-24.078,9.687-23.976.682.275-4.681,26.246-4.681,26.246.95.384,9.048-22.871,9.213-22.804,1.056.427-1.646,17.876-1.646,17.876,0,0,8.741-22.609,9.079-22.472.436.176-4.773,23.73-4.628,23.788,0,0,7.035-21.01,8.285-20.505.293.118-4.398,23.333-3.669,23.627,0,0,9.111-23.818,9.551-23.64.424.171-6.043,27.505-5.997,27.523.155.063,10.765-26.644,10.765-26.644.602.243-2.786,20.28-2.786,20.28.329.133,6.388-19.166,7.554-18.696.606.245-3.655,21.542-3.298,21.686,0,0,10.555-27.219,10.935-27.065,1.728.698-8.536,31.089-7.036,31.695,1.209.489,10.507-26.299,10.609-26.258.493.199-2.494,19.353-2.147,19.493,1.089.44,7.373-23.4,9.162-22.677.322.13-6.996,30.983-6.996,30.983,1.033.417,9.969-29.015,11.477-28.406,0,0-4.931,23.943-4.086,24.285,1.021.412,6.806-18.672,7.441-18.416.463.187-2.411,19.02-2.306,19.062l10.274-25.428c.072.029-4.3,21.809-3.767,22.024,0,0,6.467-16.482,6.632-16.415.089.036-4.454,24.295-4.295,24.359.874.353,8.079-25.041,9.831-24.333.095.038-5.481,25.843-5.285,25.922,1.301.526,11.14-30.719,12.233-30.277.975.394-5.576,22.324-4.162,22.895.576.233,5.209-16.801,6.566-16.252,1.309.529-6.155,24.478-4.916,24.979.243.098,9.985-27.202,10.849-26.853.399.161-3.438,20.708-2.734,20.992.348.141,7.716-21.866,8.678-21.478,1.931.78-7.99,28.955-6.431,29.585.991.401,10.083-27.518,10.973-27.158.779.315-4.132,20.434-2.723,21.003.74.299,9.192-22.858,9.229-22.843,1.009.408-8.393,28.568-6.604,29.291,1.138.46,11.638-29.183,11.769-29.13,1.568.634-7.491,27.716-6.214,28.232.901.364,6.702-20.384,8.02-19.851,1.31.529-4.066,21.882-3.821,21.981,0,0,10.214-28.289,11.259-27.866.204.082-7.749,27.932-6.093,28.601.394.159,9.19-22.999,9.278-22.964.256.104-5.236,21.808-4.081,22.275.864.349,7.565-22.48,8.869-21.953.221.089-1.964,18.672-1.857,18.716.002,0,5.493-13.596,5.493-13.596.236.095-1.184,15.161-.739,15.341,0,0,5.789-16.578,6.571-16.263,1.292.522-4.929,20.73-3.706,21.224.522.211,8.381-23.105,9.201-22.774,1.654.668-3.756,22.467-3.239,22.676.609.246,7.407-21.013,8.338-20.637.805.325-4.256,22.41-3.91,22.549.605.245,5.959-19.159,7.491-18.54.458.185-5.221,23.933-4.129,24.374.552.223,9.979-27.763,11.043-27.333,1.089.44-4.551,23.935-4.551,23.935.143.058,6.387-15.808,6.387-15.808l-4.396,23.077c1.622.655,9.956-28.146,11.173-27.654,1.489.601-5.118,26.313-5.118,26.313.248.1,9.067-23.887,9.569-23.684.821.332-2.965,20.423-2.738,20.515.892.36,7.177-19.978,7.946-19.668.963.389-4.738,23.422-4.073,23.691.558.225,8.512-24.428,9.679-23.957,1.24.501-6.218,28.742-5.765,28.925,1.594.644,7.852-23.465,9.252-22.9.744.3-3.161,20.264-2.874,20.38.633.256,4.415-13.673,5.369-13.288,1.209.488-3.699,20.988-3.451,21.088,0,0,10.584-26.528,10.699-26.482.031.012-6.466,30.247-6.341,30.298.865.35,10.36-28.552,11.371-28.144,1.822.736-7.245,29.446-6.87,29.598.313.126,9.686-24.901,10.008-24.771.999.404-7.365,27.1-5.55,27.834,1.109.448,8.103-20.055,8.103-20.055.916.37-2.965,18.184-1.955,18.592,1.065.43,6.944-19.762,7.838-19.401,0,0-4.682,23.429-4.102,23.663,1.822.736,8.97-24.083,9.623-23.819,0,0-6.102,28.558-5.916,28.634.076.031,8.678-25.118,9.942-24.607,0,0-8.686,31.67-7.337,32.214.622.251,9.398-24.492,9.826-24.319,0,0-7.838,28.715-6.1,29.418,1.702.688,10.232-25.392,10.255-25.383,0,0-8.015,30.142-6.883,30.599,0,0,9.485-28.709,11.303-27.975,1.396.564-4.416,23.086-4.241,23.157,1.3.525,7.03-19.829,7.874-19.488.918.371-7.224,28.472-6.006,28.964,1.914.773,9.489-26.779,10.633-26.317,1.84.743-7.118,30.373-7.118,30.373,1.8.727,11.382-29.02,11.677-28.901.455.184-11.423,35.529-8.863,36.563,1.465.592,10.238-30.112,11.896-29.442.788.318-6.281,29.79-6.281,29.79,1.793.725,7.11-22.898,8.951-22.154,0,0-5.486,26.635-5.398,26.67,1.521.614,6.669-20.131,7.928-19.623.931.376-6.293,27.657-6.293,27.657,1.022.413,12.322-30.6,12.357-30.586,2.867,1.158-10.948,39.804-10.521,39.977,1.226.496,11.102-31.074,12.351-30.57,1.576.637-7.996,27.943-6.631,28.494,1.424.575,10.016-24.79,10.016-24.79,2.049.828-7.997,33.423-7.997,33.423,1.69.683,9.67-23.935,9.67-23.935,1.771.716-6.428,28.242-5.932,28.442,0,0,11.438-30.657,12.253-30.328,1.106.447-9.078,35.557-8.864,35.643.909.367,8.899-26.872,10.582-26.192.065.026-7.381,29.353-7.011,29.503.652.263,8.602-21.291,8.602-21.291,1.667.673-6.78,29.113-6.78,29.113.897.362,10.55-30.679,12.136-30.038,0,0-7.826,29.53-6.833,29.931,1.385.56,9.09-26.09,10.337-25.586.21.085-11.569,36.873-9.918,37.54,1.456.588,12.206-31.83,12.768-31.603.574.232-8.65,30.344-7.332,30.876,1.217.492,8.211-22.331,8.908-22.049.424.171-8.041,32.257-8.041,32.257.831.336,12.723-31.5,12.726-31.499,1.79.723-9.148,33.717-8.597,33.94,0,0,7.662-23.959,9.397-23.258,1.811.732-7.036,26.337-5.513,26.953.647.262,10.154-30.424,11.992-29.681,1.619.654-8.988,36.167-8.988,36.167,1.382.558,11.182-28.08,11.322-28.024,1.011.408-7.191,26.536-5.886,27.063.059.024,7.485-19.833,7.939-19.649,1.653.668-5.858,23.337-4.614,23.839.662.268,9.344-28.115,11.076-27.415,1.427.577-7.967,28.173-6.511,28.761.2.081,8.376-25.12,9.9-24.504.419.169-7.039,29.398-6.523,29.606,1.005.406,7.72-24.383,9.552-23.643,1.282.518-5.985,27.798-5.985,27.798.037.015,8.085-23.948,9.452-23.396,1.16.469-5.403,22.88-4.438,23.27,1.054.426,8.493-23.642,9.403-23.274,1.708.69-8.257,28.352-6.816,28.934,1.574.636,7.323-21.328,8.435-20.879,1.042.421-1.491,15.629-1.057,15.804.365.148,7.994-21.855,8.713-21.565,0,0-2.087,18.731-1.788,18.852.323.13,1.615-4.978,1.956-4.841"/>
      <path class="cls-1" d="m230.039,388.559c1.364.551,27.154-79.361,31.375-77.656,2.724,1.101-15.686,51.378-15.686,51.378.31.125,22.157-60.691,24.189-59.87,1.799.727-12.778,46-12.774,46.002.264.107,18.276-57.19,22.428-55.512,1.06.428-16.153,45.421-13.437,46.519,1.204.486,19.037-49.582,19.893-49.236,1.579.638-12.079,42.006-11.379,42.289,3.587,1.449,20.874-57.286,22.827-56.498,3.584,1.448-16.805,47.191-14.302,48.202.288.116,19.599-49.428,19.918-49.299,2.834,1.145-12.89,42.499-12.048,42.839l19.806-49.022c2.777,1.122-10.544,37.148-9.907,37.406,2.142.866,19.347-47.886,19.347-47.886,1.131.457-12.352,42.843-11.751,43.086,3.155,1.275,19.241-52,20.761-51.385,1.481.598-15.158,42.541-12.101,43.776,1.132.457,16.551-50.797,19.966-49.417,0,0-14.025,42.243-12.224,42.971,0,0,21.137-53.79,21.649-53.583.81.327-14.428,43.435-12.117,44.369,1.41.57,21.88-54.542,22.014-54.487.555.224-18.065,47.954-14.857,49.251,2.069.836,23.473-64.859,25.821-63.91,3.426,1.384-18.102,50.76-15.202,51.932,1.909.771,51.33-127.045,51.33-127.045,5.989,2.42-47.119,118.489-43.101,120.112,5.268,2.129,36.902-116.286,45.568-112.784,7.82,3.159-38.489,102.286-36.417,103.124,6.884,2.781,32.985-97.208,38.392-95.024,5.755,2.325-30.189,79.326-26.875,80.665.47.19,25.031-68.645,27.355-67.706,1.476.596-15.99,50.271-15.216,50.584,1.045.422,15.055-37.263,15.055-37.263"/>
      <path class="cls-1" d="m.5,155.811c.264.107,2.918-8.951,3.518-8.708,0,0-2.963,21.326-2.732,21.419,1.113.449,10.627-33.77,13.22-32.722,1.315.531-12.805,43.456-11.959,43.798s16.846-48.112,19.075-47.211c.084.034-13.608,45.57-13.315,45.689,0,0,15.987-47.238,18.651-46.162,1.482.599-15.384,47.067-14.244,47.528,3.342,1.35,18.894-54.936,21.732-53.79,2.221.897-9.6,32.613-7.776,33.35.14.056,12.981-32.128,12.981-32.128.154.062-7.248,27.737-6.276,28.13,1.766.713,12.315-32.977,13.182-32.627.131.053-6.864,25.621-5.601,26.131.046.018,9.569-29.197,11.484-28.423.183.074-6.426,27.869-5.917,28.075,1.914.773,7.758-23.975,9.416-23.305.995.402-3.802,21.394-3.613,21.47.57.23,8.955-22.163,8.955-22.163.793.32-2.439,17.803-2.065,17.954,1.136.459,7.982-25.302,9.908-24.524.939.379-4.115,22.667-3.416,22.949,1.937.782,8.433-24.291,9.62-23.811,1.235.499-5.868,28.61-5.868,28.61.768.31,8.927-27.418,10.776-26.671.951.384-4.87,21.117-3.681,21.597,0,0,10.721-27.28,10.98-27.176,1.502.607-5.699,25.174-4.871,25.508,0,0,7.944-24.547,9.641-23.861,1.653.668-4.968,24.429-4.167,24.752.592.239,10.47-26.951,10.83-26.806,0,0-5.504,22.086-3.932,22.721,1.667.673,10.685-33.923,13.282-32.874,1.643.664-8.178,31.317-7.849,31.45.962.389,14.447-45.031,17.668-43.729.029.012-17.498,45.921-13.868,47.388,0,0,22.424-64.525,25.558-63.259,1.718.694-19.367,53.469-16.748,54.527,1.875.758,29.135-76.698,30.728-76.054,1.156.467-28.448,71.147-24.057,72.921,4.318,1.745,28.469-81.895,32.44-80.291.009.003-22.129,66.022-21.297,66.358,3.582,1.447,27.958-85.958,33.779-83.606,3.802,1.536-24.754,71.343-23.675,71.779,2.068.836,24.267-71.131,28.111-69.578.017.007-15.523,47.672-14.334,48.152,2.051.829,19.226-60.126,23.581-58.366.813.328-9.374,37.572-9.374,37.572,1.703.688,16.872-41.759,16.872-41.759,1.771.715-10.354,38.505-9.906,38.686,1.188.48,15.287-44.115,17.468-43.234,2.275.919-11.425,38.468-10.775,38.731,2.051.828,14.594-40.678,16.177-40.039,1.749.707-6.839,26.213-5.048,26.936,0,0,10.154-28.907,11.465-28.377,1.68.679-9.601,32.135-8.219,32.693,2.287.924,11.752-30.206,12.141-30.049,1.25.505-3.391,18.557-2.099,19.079.782.316,9.516-28.151,11.113-27.505.444.18-6.998,27.773-5.84,28.241.069.028,8.129-23.904,9.443-23.373,1.627.657-4.398,22.302-3.684,22.59.814.329,11.718-30.064,12.087-29.915,0,0-6.292,28.878-5.899,29.037,0,0,9.291-25.774,10.256-25.384,1.099.444-5.59,25.553-5.215,25.705.244.098,8.804-24.867,9.873-24.436.782.316-2.47,18.706-1.997,18.897,0,0,5.838-17.266,6.816-16.871,0,0-1.08,14.409-.231,14.752.976.394,7.679-21.869,8.674-21.468,1.003.405-4.906,25.754-4.741,25.821,1.601.647,7.931-19.631,7.931-19.631.487.197-1.851,15.898-1.041,16.225.499.202,8.842-22.174,8.942-22.133.334.135-4.304,20.781-3.39,21.151.199.08,4.8-16.634,6.451-15.967.872.352-2.272,18.836-2.272,18.836,1.693.684,9.68-23.96,9.68-23.96,1.723.696-6.828,30.55-6.828,30.55.359.145,8.824-24.709,9.82-24.306.948.383-3.542,21.584-3.542,21.584,1.249.505,8.51-25.825,10.164-25.157,1.422.575-5.46,25.575-4.723,25.873.642.259,6.098-18.558,7.301-18.072.103.042-2.376,17.456-1.89,17.652,1.702.688,6.091-19.432,7.604-18.82.618.25-4.223,21.139-2.88,21.682.16.065,9.054-24.417,9.751-24.136.393.159-8.18,30.43-7.461,30.721,1.043.421,9.825-25.999,10.409-25.763.918.371-2.949,18.482-1.96,18.882,1.422.574,8.378-22.676,9.052-22.404,2.022.817-8.354,33.201-8.249,33.244,0,0,9.627-27.912,11.046-27.339,1.378.557-5.764,28.845-5.764,28.845,0,0,10.872-28.526,11.434-28.299.757.306-7.306,28.154-6.615,28.434.242.098,8.847-23.928,9.552-23.643.295.119-7.138,25.26-5.273,26.013,1.33.537,10.749-26.604,10.749-26.604.342.138-3.976,24.221-3.967,24.224.952.385,5.881-19.578,7.625-18.873,1.081.437-6.787,27.01-5.834,27.395,1.477.597,9.913-27.151,10.821-26.784.764.309-7.235,26.78-5.356,27.539,1.11.448,9.393-26.432,10.499-25.985,1.907.77-6.537,27.946-5.576,28.334,1.729.699,8.471-21.696,8.724-21.594.896.362-4.186,20.748-3.598,20.986,0,0,5.823-15.126,6.071-15.026,0,0-5.412,21.493-4.035,22.049,1.814.733,10.624-26.831,10.81-26.755.294.119-8.044,29.329-6.62,29.905,1.834.741,7.362-20.776,8.249-20.417,1.18.477-4.431,20.835-3.568,21.184.775.313,5.161-15.883,6.241-15.447,1.016.41-3.292,21.226-3.292,21.226.92.372,9.719-24.055,9.719-24.055,2.495,1.008-8.735,34.349-8.382,34.492,1.338.541,11.121-28.095,11.319-28.015,1.308.529-7.639,27.341-6.077,27.972,0,0,7.436-23.909,9.348-23.136.7.283-4.574,25.469-4.458,25.516,1.441.582,10.154-25.133,10.154-25.133,2.461.994-11.804,36.229-9.767,37.052,0,0,12.119-34.081,13.538-33.507,2.631,1.063-11.498,33.696-9.006,34.703,1.014.41,11.147-28.091,11.321-28.021,1.119.452-12.02,36.633-9.357,37.709.965.39,9.373-26.14,10.395-25.727,0,0-5.57,25.779-5.204,25.927,2.064.834,9.126-27.607,10.869-26.902,1.596.645-9.684,37.075-9.684,37.075.732.296,10.612-27.687,11.106-27.488,2.344.947-11.169,32.998-8.76,33.971.666.269,10.664-27.934,11.199-27.718,1.906.77-10.348,40.06-10.348,40.06l15.399-38.113c3.087,1.247-14.805,47.614-13.763,48.035,2.035.822,16.461-42.533,17.083-42.282,0,0-19.425,51.419-16.103,52.761,1.876.758,14.568-42.882,16.938-41.924,2.56,1.034-17.419,47.621-14.736,48.705,1.791.724,16.865-44.995,17.995-44.538"/>
    </g>
  </g>
</svg>