<?xml version="1.0" encoding="UTF-8"?>
<svg id="Layer_2" data-name="Layer 2" xmlns="http://www.w3.org/2000/svg" xmlns:xlink="http://www.w3.org/1999/xlink" viewBox="0 0 825.322 282.196">
  <defs>
    <style>
      .cls-1 {
        letter-spacing: .011em;
      }

      .cls-2 {
        fill: url(#linear-gradient-2);
      }

      .cls-3 {
        fill: url(#linear-gradient-17);
      }

      .cls-4 {
        letter-spacing: 0em;
      }

      .cls-5 {
        fill: url(#linear-gradient-15);
      }

      .cls-6 {
        fill: url(#linear-gradient-18);
      }

      .cls-7 {
        fill: url(#linear-gradient-14);
      }

      .cls-8 {
        fill: url(#linear-gradient-20);
      }

      .cls-9 {
        fill: url(#linear-gradient-6);
      }

      .cls-10 {
        fill: url(#linear-gradient-11);
      }

      .cls-11 {
        letter-spacing: .006em;
      }

      .cls-12 {
        letter-spacing: -.004em;
      }

      .cls-13 {
        fill: url(#linear-gradient-10);
      }

      .cls-14 {
        fill: url(#linear-gradient-16);
      }

      .cls-15 {
        font-family: 'Inter', 'Helvetica', sans-serif;
        font-size: 63.008px;
        font-weight: 300;
      }

      .cls-15, .cls-16 {
        fill: #39484d;
      }

      .cls-17 {
        fill: url(#linear-gradient-21);
      }

      .cls-18 {
        fill: url(#linear-gradient-5);
      }

      .cls-19 {
        letter-spacing: 0em;
      }

      .cls-16 {
        font-family: 'Inter', 'Helvetica', sans-serif;
        font-size: 110.951px;
        font-weight: 700;
      }

      .cls-20 {
        fill: url(#linear-gradient-7);
      }

      .cls-21 {
        fill: url(#linear-gradient-9);
      }

      .cls-22 {
        fill: url(#linear-gradient-3);
      }

      .cls-23 {
        fill: url(#linear-gradient);
      }

      .cls-24 {
        letter-spacing: -.006em;
      }

      .cls-25 {
        letter-spacing: .036em;
      }

      .cls-26 {
        fill: url(#linear-gradient-19);
      }

      .cls-27 {
        fill: url(#linear-gradient-4);
      }

      .cls-28 {
        fill: url(#linear-gradient-8);
      }

      .cls-29 {
        fill: url(#linear-gradient-12);
      }

      .cls-30 {
        fill: url(#linear-gradient-13);
      }
    </style>
    <linearGradient id="linear-gradient" x1="0" y1="44.279" x2="221.761" y2="44.279" gradientUnits="userSpaceOnUse">
      <stop offset="0" stop-color="#00c9ff"/>
      <stop offset="1" stop-color="#ffcf2e"/>
    </linearGradient>
    <linearGradient id="linear-gradient-2" x1="6.358" y1="187.966" x2="234.986" y2="187.966" xlink:href="#linear-gradient"/>
    <linearGradient id="linear-gradient-3" x1="6.8" y1="96.246" x2="239.313" y2="96.246" xlink:href="#linear-gradient"/>
    <linearGradient id="linear-gradient-4" x1="38.551" y1="85.012" x2="246.113" y2="85.012" xlink:href="#linear-gradient"/>
    <linearGradient id="linear-gradient-5" x1="27.618" y1="108.445" x2="248.865" y2="108.445" xlink:href="#linear-gradient"/>
    <linearGradient id="linear-gradient-6" x1=".038" y1="132.321" x2="247.108" y2="132.321" xlink:href="#linear-gradient"/>
    <linearGradient id="linear-gradient-7" x1="5.304" y1="144.377" x2="238.743" y2="144.377" xlink:href="#linear-gradient"/>
    <linearGradient id="linear-gradient-8" x1="9.871" y1="148.714" x2="226.426" y2="148.714" xlink:href="#linear-gradient"/>
    <linearGradient id="linear-gradient-9" x1="12.321" y1="148.912" x2="172.591" y2="148.912" xlink:href="#linear-gradient"/>
    <linearGradient id="linear-gradient-10" x1="11.15" y1="138.098" x2="213.875" y2="138.098" xlink:href="#linear-gradient"/>
    <linearGradient id="linear-gradient-11" x1="9.692" y1="117.237" x2="226.193" y2="117.237" xlink:href="#linear-gradient"/>
    <linearGradient id="linear-gradient-12" x1="4.099" y1="59.439" x2="228.377" y2="59.439" xlink:href="#linear-gradient"/>
    <linearGradient id="linear-gradient-13" x1="6.6" y1="74.037" x2="234.083" y2="74.037" xlink:href="#linear-gradient"/>
    <linearGradient id="linear-gradient-14" x1="9.837" y1="88.851" x2="239.596" y2="88.851" xlink:href="#linear-gradient"/>
    <linearGradient id="linear-gradient-15" x1="9.921" y1="102.805" x2="243.546" y2="102.805" xlink:href="#linear-gradient"/>
    <linearGradient id="linear-gradient-16" x1="11.035" y1="117.007" x2="247.058" y2="117.007" xlink:href="#linear-gradient"/>
    <linearGradient id="linear-gradient-17" x1="11.689" y1="130.622" x2="248.621" y2="130.622" xlink:href="#linear-gradient"/>
    <linearGradient id="linear-gradient-18" x1="11.851" y1="143.884" x2="247.36" y2="143.884" xlink:href="#linear-gradient"/>
    <linearGradient id="linear-gradient-19" x1="11.04" y1="156.883" x2="247.147" y2="156.883" xlink:href="#linear-gradient"/>
    <linearGradient id="linear-gradient-20" x1="10.692" y1="168.043" x2="244.85" y2="168.043" xlink:href="#linear-gradient"/>
    <linearGradient id="linear-gradient-21" x1="9.458" y1="178.789" x2="242.025" y2="178.789" xlink:href="#linear-gradient"/>
  </defs>
  <g id="Layer_1-2" data-name="Layer 1">
    <g>
      <path class="cls-23" d="m171.163,27.416l-10.416,4.286-10.361,4.412-20.617,9.078-20.641,9.046-10.39,4.371-10.462,4.207c-13.994,5.499-28.207,10.495-42.655,14.713-14.433,4.263-29.085,7.773-43.874,10.497l-.022.004c-.137.025-.273-.019-.37-.105-.295-.267-.377-.591-.308-.944.013-.068.043-.128.084-.178l.009-.011c1.608-1.956,3.577-3.54,5.643-4.916,2.07-1.379,4.243-2.577,6.459-3.67,4.43-2.189,9.034-3.966,13.458-6.03,8.881-4.225,17.809-8.357,26.803-12.339,8.986-4,18.015-7.902,27.091-11.685,9.063-3.815,18.161-7.548,27.3-11.186,9.134-3.648,18.297-7.227,27.496-10.717,9.209-3.461,18.453-6.835,27.756-10.044,4.653-1.601,9.315-3.173,13.986-4.72l7.019-2.285c2.319-.737,4.599-1.546,6.91-2.388,4.609-1.686,9.276-3.368,14.106-4.638,2.409-.648,4.877-1.141,7.387-1.425,2.506-.279,5.072-.351,7.621.052l.026.004c.129.02.25.071.351.14.225.154.373.339.48.552.103.213.17.471.132.774l-.003.026c-.019.155-.083.297-.174.41-1.561,1.937-3.507,3.403-5.527,4.622-2.021,1.234-4.136,2.236-6.252,3.196-2.119.956-4.248,1.839-6.325,2.828-2.094.988-4.198,1.952-6.306,2.907-4.217,1.906-8.436,3.805-12.683,5.638l-12.731,5.518Zm-.116-.277c4.231-1.856,8.465-3.719,12.674-5.629,4.196-1.939,8.39-3.883,12.527-5.943,2.068-1.03,4.131-2.07,6.181-3.133,2.061-1.076,4.171-2.045,6.23-3.068,2.056-1.028,4.094-2.084,5.972-3.341,1.884-1.24,3.617-2.69,4.897-4.419l-.177.436c-.009.268.04.321.183.445l.377.144c-2.329-.271-4.716-.112-7.073.249-2.362.357-4.701.947-7.019,1.638-4.645,1.359-9.172,3.192-13.766,4.944-2.291.883-4.626,1.762-6.977,2.558l-6.975,2.354c-4.645,1.583-9.282,3.19-13.91,4.826-9.255,3.269-18.492,6.592-27.696,10.009-9.215,3.388-18.398,6.866-27.556,10.414-18.296,7.141-36.577,14.359-54.752,21.808-9.071,3.765-18.11,7.609-27.027,11.728-4.501,2.052-9.095,3.777-13.499,5.907-4.363,2.124-8.719,4.607-11.78,8.324l.093-.189c-.005-.02.021.033-.011-.011l-.391-.101c14.737-2.801,29.198-6.873,43.447-11.502,14.24-4.676,28.295-9.881,42.297-15.244l20.975-8.147c6.992-2.725,13.979-5.472,20.954-8.25l20.919-8.36,20.882-8.446Z"/>
      <path class="cls-2" d="m8.448,164.21c-.533,6.729-.517,13.513.262,20.224l.757,5.007c.314,1.657.718,3.297,1.073,4.946.172.826.364,1.647.624,2.45l.721,2.424c.25.805.474,1.618.744,2.415l.894,2.365c2.371,6.302,5.412,12.353,9.14,17.949,3.727,5.596,8.04,10.781,12.776,15.531,9.462,9.543,20.687,17.162,32.541,23.402,5.951,3.098,12.128,5.755,18.416,8.099,6.297,2.322,12.719,4.332,19.258,5.88,6.529,1.58,13.142,2.843,19.817,3.689,6.678.807,13.405,1.232,20.136,1.232,6.73-.003,13.471-.423,20.134-1.423,6.659-1.007,13.24-2.56,19.614-4.726,6.362-2.182,12.551-4.954,18.221-8.582,5.669-3.612,10.853-8.001,15.171-13.137,4.333-5.119,7.75-11.002,10.017-17.3,2.293-6.292,3.475-12.953,3.756-19.635l.072-2.509.034-1.254-.057-1.255c-.085-1.673-.131-3.347-.248-5.016l-.577-4.992c-.073-.834-.235-1.658-.388-2.482l-.451-2.473-.451-2.472-.598-2.444c-.413-1.626-.777-3.262-1.229-4.877-1.006-3.203-1.865-6.448-3.09-9.581-.581-1.575-1.129-3.164-1.736-4.726l-1.943-4.626-.97-2.312c-.345-.757-.786-1.454-1.173-2.184-.768-1.454-1.671-2.867-2.538-4.29-3.547-5.653-7.738-10.895-12.318-15.758-4.577-4.873-9.641-9.282-14.968-13.33-5.337-4.038-10.963-7.703-16.83-10.938-11.727-6.474-24.243-11.553-37.211-14.955-6.475-1.728-13.056-3.059-19.695-3.957-6.642-.883-13.34-1.302-20.034-1.298-6.696.009-13.392.556-19.984,1.709-3.305.535-6.557,1.328-9.802,2.143-3.217.91-6.425,1.884-9.533,3.128-12.503,4.757-23.882,12.694-32.29,23.231-8.458,10.519-13.638,23.452-16.063,36.706Zm-.297-.041c1.189-6.686,3.052-13.237,5.652-19.509,2.591-6.267,5.918-12.258,10.051-17.669,8.212-10.884,19.583-19.298,32.206-24.549,3.14-1.366,6.387-2.459,9.652-3.487,3.287-.95,6.608-1.804,9.976-2.413,6.722-1.298,13.556-1.977,20.395-2.107,13.69-.317,27.362,1.592,40.584,5.018,13.22,3.47,26.005,8.614,37.922,15.321,5.962,3.347,11.681,7.132,17.106,11.301,5.416,4.179,10.563,8.73,15.219,13.761,4.65,5.027,8.941,10.423,12.509,16.292.875,1.478,1.777,2.93,2.571,4.48.395.769.85,1.517,1.195,2.302l.965,2.381,1.927,4.761c.599,1.6,1.133,3.218,1.702,4.826,1.199,3.194,2.035,6.512,3.012,9.779.432,1.651.768,3.328,1.155,4.99l.558,2.499.41,2.531.409,2.529c.139.843.286,1.684.345,2.538l.486,5.104c.086,1.707.099,3.419.151,5.127l.032,1.281-.06,1.282-.124,2.563c-.405,6.823-1.733,13.616-4.187,20.004-2.451,6.383-5.996,12.336-10.421,17.53-4.428,5.198-9.72,9.617-15.481,13.237-5.768,3.616-11.953,6.545-18.377,8.781-6.42,2.252-13.056,3.847-19.763,4.962-6.704,1.154-13.503,1.726-20.304,1.875-6.803.149-13.616-.14-20.394-.817-6.772-.726-13.506-1.833-20.154-3.344-6.648-1.507-13.208-3.431-19.606-5.803-6.398-2.363-12.693-5.044-18.716-8.269-6.034-3.196-11.85-6.811-17.345-10.87-5.526-4.017-10.636-8.601-15.325-13.557-4.685-4.963-8.913-10.356-12.54-16.128-3.628-5.774-6.541-11.979-8.763-18.399-2.175-6.433-3.792-13.069-4.482-19.825-.711-6.749-.728-13.547-.152-20.312Z"/>
      <path class="cls-22" d="m8.152,164.165l.862-6.545,1.333-6.464.002-.01.008-.029c.585-2.054,1.142-4.117,1.751-6.163l.009-.026.009-.025,2.21-5.912.012-.03.014-.03,2.619-5.665.017-.034.018-.032,3.023-5.408.027-.044.018-.027,3.45-5.123.036-.05.018-.022,3.849-4.842.045-.052.017-.018,4.238-4.555.055-.055.012-.011,4.782-4.396c1.704-1.357,3.391-2.74,5.112-4.076,1.792-1.237,3.579-2.484,5.387-3.695,1.866-1.117,3.723-2.252,5.606-3.338,7.609-4.225,15.724-7.392,23.939-10.043,2.037-.721,4.138-1.237,6.203-1.859,2.065-.629,4.163-1.132,6.254-1.654l3.131-.803,3.153-.709c2.105-.46,4.197-.971,6.312-1.377,4.215-.883,8.452-1.641,12.684-2.431l6.372-1.04c2.124-.346,4.259-.62,6.388-.938,17.032-2.528,34.191-4.186,51.327-5.56,8.568-.683,17.134-1.347,25.65-2.248,4.251-.478,8.502-.978,12.7-1.644,4.213-.682,8.332-1.413,12.378-2.735l-.119.04,2.669-.994-.159.071,2.165-1.09-.212.13,1.648-1.189-.264.244,1.12-1.287-.258.419.582-1.386-.117.56.038-1.482.077.513-.51-1.574.167.349-1.06-1.662.165.212-1.609-1.744.136.128-2.145-1.83.106.081c-4.489-3.356-9.47-5.876-14.603-8.235-5.123-2.355-10.438-4.32-15.748-6.288-2.67-.947-5.342-1.895-8.046-2.752-2.688-.909-5.41-1.711-8.123-2.549-2.706-.864-5.448-1.604-8.173-2.412l-8.224-2.266c-.08-.022-.127-.105-.105-.185.021-.076.099-.122.175-.107,5.585,1.101,11.141,2.345,16.675,3.715,2.762.702,5.521,1.418,8.259,2.215,2.751.752,5.477,1.596,8.204,2.441,5.442,1.729,10.844,3.616,16.12,5.879,2.637,1.132,5.263,2.303,7.823,3.649,2.58,1.299,5.083,2.831,7.44,4.473l.093.07.013.011,2.184,1.783c.041.033.079.069.115.106l.021.023,1.629,1.726c.057.06.107.124.152.191l.014.021,1.079,1.65c.068.104.121.214.16.326l.008.024.528,1.568c.055.162.08.327.078.49v.024s-.022,1.482-.022,1.482c-.003.191-.041.372-.108.539l-.009.021-.566,1.392c-.061.15-.143.284-.242.401l-.016.018-1.105,1.3c-.074.087-.156.163-.243.229l-.021.015-1.634,1.207c-.061.045-.124.085-.189.119l-.023.012-2.153,1.115c-.047.024-.094.045-.142.064l-.018.007-2.657,1.024-.109.037-.01.003-3.139.914-3.209.74c-1.07.246-2.144.41-3.216.618-1.072.211-2.145.38-3.218.535-4.291.698-8.594,1.099-12.89,1.535-8.594.789-17.182,1.336-25.761,1.9-17.158,1.069-34.313,1.965-51.373,3.983-17.024,2.083-34.005,5.411-50.085,11.332-8.048,2.902-15.84,6.455-23.219,10.676l-5.44,3.315-5.236,3.613c-1.685,1.283-3.337,2.61-5.009,3.913l-4.752,4.286.067-.065-4.311,4.485.061-.07-3.951,4.76.054-.071-3.581,5.033.045-.071-3.221,5.292.035-.066-2.827,5.564.026-.059-2.427,5.827.018-.051c-.666,2.029-1.384,4.041-2.074,6.062l.011-.039-1.698,6.351-1.315,6.443c-.017.081-.096.134-.177.117-.078-.016-.129-.089-.119-.167Z"/>
      <path class="cls-27" d="m39.965,111.977c13.942-10.65,30.453-17.913,47.614-21.861,17.195-3.968,34.944-4.967,52.451-4.088,8.765.37,17.493,1.161,26.203,2.012l26.104,2.71c17.385,1.889,34.806,3.55,52.217,4.391l-1.255.867.125-.413.436,1.368c-2.524-1.841-5.277-3.373-8.132-4.708-2.848-1.353-5.829-2.459-8.855-3.447-6.051-1.991-12.308-3.443-18.58-4.978-3.136-.763-6.298-1.561-9.409-2.454l-9.318-2.501c-6.228-1.631-12.457-3.267-18.715-4.783-12.5-3.104-25.064-5.963-37.683-8.588-6.302-1.35-12.624-2.608-18.955-3.83-6.325-1.259-12.671-2.405-19.014-3.6-.082-.015-.135-.093-.12-.175.014-.078.087-.13.165-.122,6.413.74,12.81,1.62,19.203,2.533,6.383.975,12.762,1.988,19.127,3.094,6.363,1.114,12.707,2.338,19.039,3.626,6.329,1.301,12.66,2.604,18.948,4.095,6.292,1.475,12.58,2.976,18.825,4.646l9.37,2.532c3.094.876,6.171,1.721,9.294,2.52,6.235,1.615,12.544,3.165,18.728,5.291,6.176,2.083,12.281,4.812,17.591,8.861l.014.011c.426.325.579.876.422,1.357l-.134.41-.008.026c-.178.544-.701.878-1.247.842-17.517-1.168-34.828-3.832-52.192-5.85-8.679-1.047-17.368-2.009-26.083-2.648-8.712-.661-17.443-1.003-26.16-1.081-17.419-.007-34.872.846-51.863,4.478-8.479,1.822-16.833,4.282-24.877,7.57-1.986.876-3.99,1.719-5.967,2.623-1.941.976-3.916,1.892-5.855,2.882l-5.71,3.18-5.568,3.446c-.069.045-.162.026-.208-.044-.043-.065-.025-.154.035-.201Z"/>
      <path class="cls-18" d="m29.151,81.141c9.197,1.755,18.371,3.625,27.512,5.643l13.711,3.028,13.674,3.19c9.102,2.183,18.195,4.408,27.256,6.757,9.058,2.361,18.066,4.911,27.077,7.446,9.007,2.547,18,5.144,27.025,7.615,4.509,1.251,9.033,2.436,13.565,3.598l13.587,3.51,13.618,3.385,6.829,1.692c2.281.596,4.536,1.242,6.785,1.883,4.497,1.269,8.971,2.549,13.494,3.387,4.506.831,9.118,1.199,13.428.343l-.776.465.375-.457.274,2.006c-9.865-6.711-20.583-12.116-31.653-16.592-11.073-4.489-22.509-8.103-34.122-11.036-11.603-3.002-23.416-5.186-35.292-6.966l-8.927-1.228-8.957-1.03-8.979-.89-9-.728c-.083-.005-.146-.076-.14-.159.005-.079.074-.14.152-.141,3.012.052,6.026.101,9.039.194l9.036.417,9.025.674,9.011.888c12.003,1.33,23.937,3.376,35.733,6.092,11.777,2.783,23.405,6.333,34.63,10.958,11.208,4.641,22.029,10.323,32.006,17.289l.012.009c.618.431.769,1.282.338,1.899-.024.034-.05.068-.076.099l-.381.451-.023.027c-.2.238-.469.385-.753.438-4.923.913-9.802.318-14.449-.629-4.662-.975-9.17-2.369-13.622-3.819-2.227-.72-4.446-1.44-6.671-2.105l-6.736-1.91-13.517-3.8c-18.058-4.93-36.128-9.797-54.343-14.095l-27.277-6.604-27.203-6.881-27.185-6.968c-9.07-2.292-18.125-4.655-27.175-7.051-.08-.021-.128-.103-.107-.183.02-.077.097-.123.173-.109Z"/>
      <path class="cls-9" d="m1.674,87.334c2.189,4.013,5.494,7.243,9.148,9.888,3.678,2.637,7.672,4.82,11.789,6.741,8.217,3.874,16.922,6.817,25.381,10.42l25.424,10.393c8.479,3.457,16.925,7.006,25.45,10.362,16.996,6.851,34.319,12.877,51.849,18.204,17.524,5.349,35.188,10.189,52.877,14.885l-.113-.025c3.974.773,7.64,1.904,11.39,2.856,3.727.979,7.462,1.849,11.197,2.469,3.718.603,7.526.948,11.016.331,1.732-.313,3.353-.901,4.568-1.909,1.226-.988,2.057-2.376,2.451-4.016l.082.963c-2.403-5.649-6.402-10.603-10.972-14.917-4.595-4.321-9.788-8.046-15.161-11.482-5.36-3.471-10.946-6.626-16.585-9.694-5.62-3.105-11.329-6.083-16.875-9.353-.071-.042-.095-.134-.053-.206.04-.068.127-.092.196-.058,5.76,2.85,11.595,5.538,17.387,8.35,5.776,2.84,11.523,5.776,17.099,9.068,5.546,3.331,10.94,7.003,15.834,11.368,4.867,4.351,9.287,9.503,11.98,15.712.132.303.156.626.09.926l-.008.037c-.468,2.137-1.663,4.288-3.455,5.748-1.777,1.485-3.927,2.262-5.994,2.623-4.174.715-8.211.286-12.117-.34-3.915-.639-7.716-1.634-11.473-2.663-3.747-1.012-7.49-2.208-11.119-2.964l-.054-.011-.059-.014c-17.711-4.83-35.223-10.358-52.567-16.333l-51.96-18.089c-8.654-3.039-17.284-6.157-25.851-9.438-8.56-3.305-17.034-6.808-25.473-10.423-8.347-3.707-16.974-6.865-25.206-11.111-4.087-2.146-8.106-4.506-11.697-7.46-3.57-2.93-6.824-6.448-8.687-10.707-.033-.076.001-.164.077-.198.072-.031.156.001.193.069Z"/>
      <path class="cls-20" d="m25.198,73.648c-2.329,1.655-4.592,3.39-6.715,5.27-2.12,1.883-4.052,3.965-5.713,6.217-1.661,2.245-3.059,4.688-3.889,7.306-.853,2.605-1.195,5.35-.954,8.055.537,5.433,3.19,10.495,6.668,14.806,3.467,4.363,7.742,8.08,12.211,11.501.108.082.2.177.277.281l.016.023c1.41,1.929,3.537,3.684,5.57,5.364,2.066,1.691,4.249,3.268,6.431,4.85,4.378,3.149,8.899,6.132,13.468,9.039,9.135,5.828,18.531,11.27,28.125,16.331,19.181,10.152,39.096,18.842,59.088,27.165,10.007,4.144,20.116,8.034,30.344,11.538,5.102,1.787,10.248,3.432,15.415,4.982,5.167,1.548,10.376,2.944,15.629,4.084,5.244,1.159,10.55,2.068,15.861,2.354,2.651.131,5.309.098,7.891-.267,2.571-.369,5.105-1.063,7.192-2.421,2.095-1.341,3.541-3.489,4.046-5.98.542-2.486.28-5.166-.261-7.755-1.097-5.224-3.4-10.19-5.835-15.017-.038-.074-.009-.164.064-.202.07-.036.156-.01.197.055,1.42,2.319,2.754,4.697,3.926,7.166,1.168,2.468,2.225,5.011,2.935,7.692.695,2.67,1.112,5.51.628,8.378-.241,1.425-.731,2.843-1.512,4.11-.775,1.27-1.832,2.365-3.026,3.224-2.408,1.72-5.223,2.596-7.992,3.054-2.783.468-5.578.571-8.346.509-5.54-.152-10.995-.944-16.374-1.983-10.747-2.173-21.208-5.362-31.488-8.974-10.267-3.659-20.363-7.739-30.352-12.043-19.983-8.623-39.257-18.72-58.456-28.864-9.58-5.118-19.162-10.234-28.599-15.649-4.71-2.724-9.372-5.538-13.936-8.542-2.278-1.511-4.51-3.095-6.691-4.784-1.092-.844-2.159-1.727-3.193-2.676-1.032-.956-2.041-1.951-2.949-3.201l.293.304c-4.616-3.504-8.97-7.441-12.599-12.073-1.796-2.325-3.376-4.848-4.584-7.568-1.205-2.716-2.022-5.649-2.207-8.653-.165-3.004.317-6.033,1.352-8.823,1.034-2.8,2.643-5.319,4.482-7.582,3.753-4.499,8.463-7.966,13.403-10.855.072-.042.163-.018.205.054.039.068.018.155-.044.199Z"/>
      <path class="cls-28" d="m88.634,46.37c-3.552,1.704-7.103,3.398-10.626,5.147-3.514,1.766-7.003,3.578-10.472,5.417-6.927,3.699-13.709,7.663-20.206,12.018-3.27,2.147-6.421,4.46-9.495,6.855-3.084,2.383-6.029,4.935-8.799,7.649-5.519,5.421-10.421,11.544-13.492,18.565-3.129,6.97-4.012,14.912-2.351,22.465.789,3.778,2.082,7.469,3.77,10.981,1.695,3.51,3.736,6.862,6,10.055,4.532,6.398,9.969,12.12,15.692,17.484,2.85,2.7,5.828,5.265,8.872,7.745,3.031,2.496,6.144,4.893,9.284,7.251,6.295,4.699,12.791,9.121,19.332,13.47,3.27,2.176,6.58,4.292,9.897,6.397,1.664,1.029,3.303,2.098,4.973,3.103l5.095,2.981c13.55,8.045,27.074,16.047,40.961,23.354,6.924,3.687,13.967,7.134,21.114,10.328,7.152,3.175,14.445,6.052,21.934,8.253,7.475,2.174,15.163,3.881,22.944,3.9,1.94.01,3.88-.097,5.803-.334,1.924-.226,3.837-.587,5.695-1.144,3.733-1.062,7.243-2.901,10.269-5.392.063-.053.158-.046.211.018.051.061.044.151-.012.206-2.879,2.724-6.388,4.807-10.173,6.091-1.884.672-3.835,1.146-5.805,1.481-1.969.36-3.967.521-5.962.593-3.995.15-7.986-.165-11.929-.723-3.945-.559-7.841-1.4-11.676-2.436-15.346-4.197-29.869-10.748-43.897-18.005-7.001-3.67-13.904-7.515-20.695-11.534-6.797-4.009-13.514-8.141-20.232-12.233l-5.061-3.049c-1.69-1.045-3.338-2.147-4.994-3.233-3.284-2.189-6.56-4.389-9.796-6.65-6.499-4.481-12.819-9.224-18.999-14.14-6.192-4.901-12.146-10.099-17.877-15.531-5.692-5.469-11.079-11.289-15.756-17.682-2.336-3.195-4.486-6.539-6.314-10.074-1.854-3.519-3.328-7.262-4.294-11.16-2.019-7.776-1.429-16.305,1.677-23.803,3.091-7.528,8.201-13.983,13.943-19.503,5.754-5.556,12.194-10.285,18.873-14.545,13.423-8.453,27.783-15.173,42.456-20.911.077-.03.164.008.194.085.029.074-.006.157-.076.19Z"/>
      <path class="cls-21" d="m162.456,18.343c-5.599,4.619-11.656,8.669-17.86,12.451-6.248,3.714-12.684,7.101-19.195,10.313-13.036,6.408-26.42,11.991-39.545,18.029-6.567,3.009-13.087,6.101-19.479,9.429-6.402,3.306-12.656,6.899-18.628,10.925-5.959,4.033-11.674,8.47-16.813,13.527l-3.765,3.877-3.53,4.094-3.303,4.279-3.029,4.477.049-.102c-1.626,4.877-2.577,9.968-2.86,15.094-.283,5.129.155,10.283,1.143,15.316,1.955,10.095,6.045,19.653,11.061,28.594,5.047,8.95,11.133,17.294,17.741,25.178,6.624,7.88,13.857,15.246,21.449,22.212,15.185,13.936,31.714,26.432,49.219,37.376,4.383,2.727,8.842,5.329,13.355,7.834,4.507,2.518,9.085,4.91,13.741,7.145,4.656,2.233,9.39,4.305,14.194,6.207,4.814,1.876,9.721,3.518,14.723,4.856.08.02.129.102.108.182-.02.077-.098.125-.176.11-10.181-2.102-20.034-5.647-29.549-9.833-4.763-2.092-9.455-4.347-14.081-6.73-4.619-2.397-9.155-4.952-13.634-7.602-8.948-5.315-17.657-11.048-26.009-17.271-4.178-3.108-8.302-6.293-12.31-9.622-4.003-3.334-7.924-6.769-11.749-10.311-7.632-7.1-14.845-14.666-21.478-22.727-6.636-8.052-12.659-16.652-17.602-25.876-4.937-9.208-8.704-19.131-10.454-29.464-1.735-10.31-1.141-21.079,2.271-30.976.012-.035.03-.072.05-.103,7.893-12.256,18.448-22.638,30.247-31.159,11.824-8.536,24.772-15.379,37.975-21.385,13.21-6.026,26.625-11.474,39.766-17.478,6.573-2.995,13.067-6.16,19.382-9.656,6.355-3.427,12.493-7.251,18.389-11.449.067-.048.161-.032.209.035.046.064.033.153-.027.203Z"/>
      <path class="cls-13" d="m212.409,2.562c-2.221,3.734-4.796,7.263-7.639,10.567-2.84,3.307-5.938,6.406-9.274,9.226-6.672,5.647-14.076,10.393-21.806,14.435-7.745,4.029-15.795,7.41-23.95,10.432-8.151,3.041-16.426,5.69-24.719,8.218-8.302,2.501-16.626,4.893-24.884,7.478-4.129,1.293-8.249,2.613-12.335,4.028-4.081,1.43-8.133,2.941-12.136,4.575-7.996,3.282-15.772,7.122-23.082,11.709-7.312,4.574-14.031,10.09-19.788,16.449-5.741,6.386-10.29,13.741-13.667,21.574l-1.181,2.975c-.397.99-.705,2.014-1.062,3.019-.366,1.007-.659,2.022-.946,3.037-.269,1.02-.662,2.011-.763,3.066-.314,2.086-.712,4.149-.841,6.283-.082,1.06-.223,2.115-.257,3.177l-.07,3.189c-.051,1.062-.007,2.125.049,3.188l.139,3.187.338,3.175c.102,1.059.219,2.116.419,3.164l.524,3.151c.183,1.049.454,2.082.675,3.124.42,2.09,1.034,4.136,1.607,6.19,2.386,8.198,5.825,16.083,9.808,23.668,1.966,3.81,4.156,7.506,6.399,11.169,2.312,3.622,4.687,7.207,7.186,10.711,4.988,7.016,10.381,13.756,16.056,20.256,11.351,13.01,23.746,25.123,36.709,36.616.062.055.068.15.013.212-.053.06-.143.067-.205.018-13.61-10.744-26.47-22.491-38.265-35.283-11.671-12.871-22.491-26.721-30.72-42.202l-1.527-2.906c-.491-.978-.947-1.975-1.422-2.962-.973-1.963-1.816-3.988-2.677-6.005-.881-2.008-1.583-4.093-2.382-6.136l-1.02-3.133c-.331-1.047-.693-2.085-.955-3.154-.567-2.125-1.172-4.239-1.583-6.404-.217-1.079-.482-2.147-.659-3.234l-.505-3.265c-.192-1.085-.302-2.181-.395-3.28l-.31-3.291-.106-3.306c-.044-1.102-.076-2.203-.012-3.306l.113-3.307c.049-1.101.206-2.197.304-3.295.159-2.195.598-4.389.988-6.576.135-1.109.563-2.146.868-3.212.325-1.063.656-2.122,1.051-3.145.389-1.028.728-2.075,1.158-3.087l1.28-3.039c3.604-8.025,8.61-15.396,14.641-21.736,6.025-6.367,13.062-11.632,20.437-16.231,3.705-2.282,7.533-4.351,11.426-6.278,3.899-1.915,7.831-3.761,11.838-5.433,15.994-6.779,32.54-12.131,48.977-17.565,16.439-5.391,32.921-10.717,48.367-18.341,7.681-3.852,15.141-8.208,21.862-13.578,3.345-2.694,6.556-5.566,9.516-8.694,2.959-3.127,5.675-6.492,8.144-10.046.047-.068.14-.086.209-.039.065.045.083.133.044.201Z"/>
      <path class="cls-10" d="m215.026,6.316c2.621,2.765,5.054,5.744,7.03,9.062,1.931,3.302,3.488,7.081,3.339,11.139-.065,2.007-.575,4.016-1.462,5.827-.883,1.817-2.112,3.432-3.498,4.847-2.797,2.82-6.118,4.965-9.549,6.745-6.887,3.568-14.201,5.982-21.523,8.156-7.334,2.165-14.751,3.944-22.181,5.611-7.439,1.631-14.891,3.154-22.329,4.735l-11.148,2.405c-3.707.839-7.407,1.707-11.095,2.625-7.376,1.831-14.689,3.909-21.93,6.202-7.255,2.247-14.374,4.912-21.379,7.803-13.941,5.886-27.455,13.024-39.012,22.625-5.751,4.805-10.937,10.279-15.144,16.424-4.209,6.137-7.475,12.902-9.526,20.052-2.112,7.137-2.972,14.613-3.019,22.092-.011,7.489.878,14.996,2.415,22.374.745,3.696,1.689,7.354,2.671,11.004,1.058,3.629,2.162,7.252,3.442,10.818,2.503,7.153,5.368,14.192,8.486,21.129.034.076,0,.164-.075.198-.072.033-.157.003-.194-.066-3.568-6.725-6.82-13.633-9.638-20.731-2.808-7.098-5.253-14.371-6.983-21.85-1.742-7.468-2.841-15.125-3.015-22.851-.156-7.721.734-15.511,2.835-23.003,2.144-7.476,5.544-14.61,10.034-20.951,4.478-6.356,9.933-11.953,15.914-16.816,5.978-4.882,12.508-9.007,19.267-12.615,6.755-3.629,13.799-6.652,20.933-9.359,14.283-5.408,28.959-9.542,43.675-13.421,7.359-1.944,14.73-3.846,22.107-5.715l22.133-5.538c7.371-1.837,14.735-3.67,22.015-5.733,3.638-1.036,7.249-2.15,10.803-3.4,3.55-1.251,7.061-2.613,10.403-4.276,3.329-1.667,6.553-3.581,9.212-6.081,2.655-2.476,4.564-5.74,4.782-9.349.241-3.599-.954-7.248-2.66-10.563-1.743-3.323-3.981-6.403-6.363-9.357-.053-.064-.043-.159.021-.211.061-.05.15-.043.204.013Z"/>
      <path class="cls-29" d="m207.955,38.581c4.731-2.985,9.832-5.375,14.202-8.84,1.083-.864,2.125-1.79,2.986-2.852.85-1.043,1.56-2.307,1.396-3.579-.21-1.258-1.256-2.23-2.41-2.893l-.893-.467c-.304-.142-.641-.221-.959-.335-.648-.202-1.273-.461-1.958-.552-2.666-.612-5.452-.633-8.199-.472-2.755.142-5.5.562-8.224,1.066-5.453,1.025-10.82,2.504-16.198,4.011-2.682.762-5.415,1.489-8.15,2.132l-8.132,1.965c-5.421,1.309-10.818,2.716-16.21,4.138-10.775,2.88-21.517,5.895-32.197,9.142-21.342,6.525-42.51,13.811-63.063,22.56-5.133,2.198-10.236,4.467-15.295,6.826-5.041,2.396-10.039,4.881-14.949,7.516-4.904,2.638-9.741,5.422-14.275,8.58-2.251,1.586-4.45,3.273-6.29,5.197-.903.957-1.731,2.007-2.15,3.057-.412,1.081-.274,1.85.48,2.566l-.198-.152c1.659.977,3.773,1.384,5.861,1.602,1.043.147,2.128.132,3.193.188,1.079-.023,2.155-.005,3.239-.079,4.331-.237,8.674-.851,12.994-1.598,8.643-1.531,17.207-3.656,25.725-5.943,8.516-2.308,16.985-4.816,25.485-7.276,4.254-1.226,8.495-2.49,12.821-3.597,1.087-.303,2.14-.486,3.194-.817l3.149-.953,6.316-1.929c16.876-5.24,33.713-10.588,50.307-16.664,8.291-3.05,16.5-6.332,24.606-9.86,4.048-1.777,8.047-3.661,12.026-5.587l5.916-2.995,5.853-3.105Zm.157.255l-5.844,3.164-5.899,3.048c-3.943,2.011-7.91,3.977-11.916,5.861-7.982,3.836-16.097,7.402-24.283,10.796-16.362,6.828-33.11,12.707-50.003,18.029l-6.359,2-3.194.995c-1.054.34-2.184.552-3.226.854-4.235,1.127-8.485,2.351-12.73,3.581-8.49,2.477-17.012,4.913-25.601,7.135-8.591,2.213-17.239,4.269-26.038,5.736-4.4.726-8.843,1.291-13.352,1.448-1.124.056-2.263.019-3.394.022-1.141-.077-2.275-.084-3.423-.262-2.274-.293-4.625-.734-6.796-2.043l-.007-.004c-.069-.042-.136-.094-.192-.148-.628-.608-1.183-1.471-1.337-2.446-.163-.973.051-1.898.365-2.668.659-1.544,1.671-2.673,2.697-3.72,2.085-2.062,4.399-3.724,6.753-5.293,4.727-3.108,9.677-5.765,14.67-8.313,5-2.535,10.072-4.908,15.18-7.194,5.092-2.321,10.223-4.55,15.383-6.708,10.336-4.287,20.754-8.348,31.21-12.322,10.449-3.992,20.971-7.809,31.586-11.364,10.608-3.578,21.326-6.845,32.154-9.712l4.059-1.082,4.077-1.01c2.715-.685,5.444-1.315,8.171-1.954,2.723-.653,5.473-1.192,8.207-1.794,2.721-.572,5.403-1.226,8.129-1.875,5.436-1.306,10.912-2.598,16.486-3.431,2.786-.406,5.594-.737,8.426-.781,2.822-.063,5.689.059,8.46.798.703.121,1.37.418,2.046.658.334.134.681.23,1.002.395l.946.539c1.2.747,2.399,1.894,2.626,3.46.097.775-.114,1.524-.403,2.195-.321.66-.727,1.264-1.195,1.803-.925,1.092-2.006,2.011-3.122,2.865-2.25,1.69-4.644,3.151-7.064,4.554-2.414,1.414-4.911,2.677-7.255,4.189Z"/>
      <path class="cls-30" d="m231.363,49.775c.907-2.397,1.435-5.083.692-7.564-.71-2.498-2.759-4.378-5.027-5.556-2.289-1.211-4.825-1.894-7.369-2.39-2.554-.485-5.153-.721-7.752-.844-5.204-.223-10.421.01-15.614.447-5.195.442-10.37,1.111-15.523,1.913-20.606,3.294-40.949,8.093-61.135,13.446-10.102,2.655-20.14,5.565-30.107,8.712-9.967,3.144-19.857,6.553-29.575,10.407-9.723,3.831-19.28,8.11-28.491,13.015-4.601,2.454-9.072,5.164-13.249,8.232-2.072,1.55-4.07,3.201-5.811,5.058-1.702,1.833-3.266,4.007-3.432,6.259v-.109c.137,2.365,1.146,4.557,2.802,6.197,1.652,1.645,3.794,2.841,6.091,3.645,4.608,1.611,9.605,2.266,14.59,2.48,4.997.22,10.027.049,15.042-.321,5.018-.356,10.029-.921,15.024-1.613,9.988-1.424,19.916-3.326,29.772-5.556,9.863-2.202,19.662-4.702,29.406-7.406,9.754-2.672,19.418-5.663,29.047-8.759,9.613-3.147,19.187-6.421,28.656-9.993,9.465-3.576,18.819-7.471,27.894-11.952,4.539-2.236,8.962-4.71,13.208-7.457,2.095-1.412,4.158-2.883,6.056-4.548,1.87-1.671,3.682-3.508,4.804-5.74Zm.276.117c-1.147,2.331-2.964,4.186-4.84,5.894-1.898,1.702-3.973,3.178-6.05,4.641-4.196,2.872-8.621,5.38-13.078,7.817-8.947,4.82-18.198,9.053-27.55,13.026-18.71,7.957-38.012,14.458-57.564,20.02-19.568,5.505-39.448,10.03-59.655,12.721-10.103,1.285-20.316,2.152-30.582,1.544-1.282-.059-2.564-.219-3.845-.324-1.279-.179-2.561-.31-3.835-.554-2.553-.419-5.086-1.098-7.542-2.036-2.449-.936-4.834-2.313-6.728-4.301-1.908-1.973-3.068-4.724-3.139-7.444v-.052s0-.058,0-.058c.149-1.509.746-2.856,1.482-4.029.746-1.173,1.627-2.217,2.566-3.18,1.886-1.921,3.978-3.565,6.129-5.099,4.322-3.045,8.915-5.614,13.548-8.076,9.295-4.883,18.95-8.983,28.645-12.945,19.438-7.813,39.24-14.744,59.376-20.609,20.153-5.759,40.671-10.476,61.535-12.97,5.213-.619,10.446-1.097,15.692-1.359,5.245-.257,10.51-.308,15.755.101,2.62.216,5.234.555,7.814,1.082,2.569.555,5.132,1.299,7.455,2.587,1.154.645,2.249,1.422,3.165,2.393.917.965,1.633,2.141,1.995,3.43.757,2.602.192,5.338-.747,7.78Z"/>
      <path class="cls-7" d="m237.078,59.459c-1.454-2.204-3.615-3.937-5.906-5.281-2.312-1.341-4.783-2.431-7.354-3.204-5.116-1.632-10.448-2.516-15.789-3.035-10.699-1.015-21.479-.83-32.19-.079-21.43,1.569-42.702,4.888-63.721,9.345-10.516,2.213-20.955,4.809-31.267,7.857-5.15,1.542-10.27,3.187-15.338,4.984-5.057,1.825-10.067,3.787-14.971,5.989-4.903,2.198-9.736,4.568-14.361,7.295-4.626,2.715-9.093,5.721-13.132,9.218-1.043.838-1.949,1.82-2.93,2.722-.462.478-.904.975-1.353,1.465-.453.487-.894.984-1.285,1.519-1.704,2.035-3.053,4.335-4.053,6.737-.21.616-.511,1.204-.648,1.839l-.455,1.888-.199,1.923c-.052.64.032,1.284.038,1.925.202,2.562,1.058,5.035,2.3,7.305l-.124-.171c1.723,1.79,3.944,3.104,6.259,4.159,2.323,1.058,4.779,1.871,7.292,2.486,5.018,1.263,10.196,1.977,15.396,2.387,5.202.414,10.435.542,15.667.495,5.233-.031,10.469-.26,15.697-.608,10.458-.693,20.884-1.933,31.253-3.516,5.181-.82,10.356-1.677,15.513-2.639,5.155-.97,10.288-2.052,15.415-3.164,5.121-1.138,10.222-2.362,15.3-3.672,5.072-1.333,10.122-2.749,15.149-4.24,10.029-3.053,19.987-6.382,29.657-10.433,9.64-4.07,19.109-8.77,27.464-15.107,1.036-.799,2.038-1.641,3.038-2.485.943-.904,1.95-1.748,2.82-2.725,1.845-1.855,3.437-3.949,4.788-6.179,1.367-2.225,2.283-4.725,2.663-7.297.385-2.572.137-5.238-.63-7.704Zm.27-.13c.826,2.557,1.086,5.249.718,7.885-.36,2.633-1.299,5.178-2.639,7.465-1.325,2.294-2.902,4.454-4.731,6.371-1.785,1.961-3.758,3.736-5.785,5.439-4.096,3.361-8.529,6.286-13.099,8.95-4.577,2.658-9.292,5.069-14.091,7.297-19.23,8.884-39.614,14.943-60.193,19.675-20.616,4.65-41.58,7.806-62.703,9.047-10.557.615-21.176.701-31.754-.311-5.283-.514-10.57-1.297-15.73-2.756-2.582-.703-5.127-1.613-7.564-2.798-2.426-1.185-4.796-2.652-6.692-4.719l-.021-.023c-.041-.045-.076-.097-.103-.148-1.281-2.488-2.166-5.219-2.324-8.041.004-.704-.064-1.412.006-2.111l.264-2.092.535-2.03c.166-.681.495-1.301.735-1.953,1.12-2.535,2.593-4.904,4.393-6.964.418-.544.882-1.045,1.357-1.535.472-.493.925-1.004,1.404-1.489,1.008-.914,1.946-1.91,3.012-2.754,4.14-3.526,8.678-6.523,13.362-9.222,4.697-2.68,9.524-5.12,14.441-7.353,19.703-8.879,40.409-15.378,61.431-20.371,21.052-4.864,42.539-8.088,64.162-8.836,10.8-.37,21.652-.189,32.381,1.194,5.349.74,10.703,1.673,15.827,3.433,2.57.838,5.071,1.919,7.401,3.301,2.321,1.389,4.485,3.115,5.999,5.447Z"/>
      <path class="cls-5" d="m38.109,88.085c-5.725,3.439-11.399,7.099-16.253,11.702-2.415,2.299-4.652,4.805-6.414,7.619-1.759,2.804-3.051,5.912-3.519,9.156l.006-.112c.255,2.229.564,4.465,1.326,6.569.291,1.08.816,2.073,1.232,3.103l.799,1.464.403.729.471.688c1.182,1.885,2.73,3.508,4.323,5.048.852.717,1.659,1.482,2.582,2.114.452.326.888.671,1.352.98l1.414.896c3.788,2.371,7.993,4.037,12.264,5.419,4.287,1.365,8.706,2.32,13.158,3.086,8.921,1.468,18.001,2.078,27.084,2.16,9.086.102,18.191-.259,27.274-.971,18.16-1.483,36.266-4.22,54.024-8.461,8.886-2.087,17.66-4.648,26.288-7.593,4.308-1.488,8.58-3.09,12.732-4.949,4.14-1.864,8.234-3.892,11.915-6.451l.065-.04.011-.006c5.488-3.016,10.646-6.649,15.344-10.759,2.344-2.061,4.566-4.255,6.589-6.603,2.021-2.346,3.863-4.842,5.315-7.523,1.435-2.674,2.539-5.545,2.794-8.475.262-2.922-.318-5.844-1.725-8.391-1.43-2.541-3.563-4.7-5.98-6.505-2.449-1.785-5.168-3.227-7.961-4.523l.101.041c-15.096-5.391-30.985-8.351-46.965-9.511-7.997-.554-16.028-.664-24.048-.365-8.021.306-16.025,1.051-23.992,2.105-15.926,2.153-31.715,5.577-47.136,10.304-15.421,4.712-30.487,10.724-44.872,18.057Zm-.145-.263c7.196-3.706,14.529-7.109,21.962-10.303,7.44-3.172,14.974-6.147,22.638-8.769,15.314-5.264,31.071-9.423,47.148-11.847,8.032-1.233,16.137-2.023,24.264-2.397,8.127-.38,16.283-.314,24.407.284,16.247,1.134,32.386,4.416,47.709,10.012l.026.01.075.032c2.927,1.389,5.801,2.943,8.451,4.913,2.616,1.996,5.03,4.431,6.668,7.442,1.618,3.018,2.257,6.566,1.887,9.932-.357,3.383-1.643,6.517-3.229,9.367-3.245,5.706-7.812,10.371-12.695,14.484-4.916,4.099-10.258,7.643-15.91,10.606l.075-.046c-3.889,2.581-8.071,4.534-12.295,6.331-4.24,1.765-8.544,3.344-12.883,4.811-8.682,2.929-17.528,5.304-26.409,7.503-17.786,4.294-35.816,7.682-54.054,9.613-4.56.474-9.13.865-13.711,1.146-4.582.264-9.174.386-13.77.396-9.188-.014-18.413-.611-27.512-2.234-4.549-.8-9.055-1.92-13.451-3.414-4.389-1.498-8.677-3.418-12.568-6.024l-1.448-.99c-.475-.34-.924-.72-1.387-1.078-.942-.696-1.774-1.533-2.641-2.319-1.631-1.682-3.201-3.454-4.387-5.49l-.471-.744-.402-.784c-.264-.525-.539-1.043-.791-1.572-.407-1.1-.918-2.161-1.189-3.303-.724-2.231-.972-4.568-1.157-6.877-.003-.037,0-.077.006-.113.604-3.393,2.055-6.563,3.945-9.369,1.894-2.814,4.18-5.327,6.667-7.594,2.493-2.264,5.172-4.305,7.925-6.227,2.762-1.915,5.611-3.681,8.508-5.389Z"/>
      <path class="cls-14" d="m30.207,98.432c-4.456,3.533-8.704,7.455-11.936,12.151-.747,1.209-1.602,2.354-2.196,3.647-.315.635-.671,1.251-.953,1.9l-.771,1.979c-.899,2.67-1.518,5.472-1.402,8.291.077,2.809.669,5.581,1.69,8.189,1.059,2.599,2.56,4.993,4.268,7.213,1.72,2.222,3.766,4.172,5.88,6.021,2.176,1.785,4.452,3.451,6.864,4.911,9.662,5.85,20.561,9.444,31.736,11.096,2.815.436,5.631.983,8.442,1.455l4.215.626,2.108.313,2.117.246,4.234.489c1.412.153,2.83.259,4.245.391,2.828.288,5.668.431,8.507.594,11.357.658,22.769.379,34.127-.556,2.845-.19,5.671-.567,8.509-.848,2.829-.351,5.657-.722,8.479-1.137,2.814-.467,5.638-.882,8.435-1.448l4.204-.803,4.183-.911c2.791-.588,5.56-1.313,8.335-1.993,1.383-.36,2.787-.642,4.177-.968,1.384-.339,2.765-.688,4.135-1.077,5.491-1.52,10.883-3.398,16.135-5.6,10.504-4.38,20.462-10.185,29.125-17.492,4.294-3.681,8.255-7.777,11.406-12.407,3.125-4.608,5.474-9.84,5.801-15.282.377-5.434-1.586-10.801-5.053-15.022-3.441-4.261-7.986-7.642-12.868-10.358-4.872-2.766-10.127-4.885-15.46-6.734-1.334-.465-2.69-.871-4.034-1.31l-4.076-1.185c-1.362-.346-2.704-.748-4.081-1.05l-4.181-.75c-5.551-1.09-11.199-1.799-16.824-2.599l-8.483-.835c-2.823-.34-5.669-.376-8.502-.584l-4.254-.256c-1.419-.072-2.84-.062-4.26-.097-2.841-.025-5.683-.151-8.523-.094l-8.521.227c-2.84.089-5.671.353-8.508.521-11.317.934-22.643,2.294-33.745,4.838-2.805.507-5.537,1.312-8.298,2.01l-4.136,1.076c-1.387.334-2.719.843-4.083,1.256-2.704.893-5.445,1.694-8.124,2.664l-7.983,3.077c-10.531,4.394-20.627,9.834-30.103,16.215Zm-.177-.242c9.469-6.452,19.521-11.985,29.951-16.739l7.921-3.348c2.663-1.062,5.39-1.955,8.084-2.941,1.358-.461,2.689-1.013,4.07-1.399l4.125-1.23c2.756-.801,5.487-1.71,8.294-2.32l8.382-2.013,8.476-1.582,2.121-.392,2.136-.293,4.274-.579,4.278-.558c1.429-.161,2.864-.251,4.296-.38,11.453-1.135,22.991-1.17,34.476-.617,5.753.208,11.469.879,17.194,1.438l8.543,1.211c1.425.19,2.847.405,4.264.696l4.254.804,4.253.805c1.411.323,2.809.752,4.213,1.123l4.149,1.247c1.37.46,2.749.888,4.111,1.376,5.444,1.942,10.826,4.164,15.882,7.092,5.048,2.886,9.87,6.459,13.555,11.177,1.824,2.356,3.351,5.002,4.271,7.887.925,2.871,1.339,5.933,1.074,8.93-.24,2.997-.995,5.923-2.146,8.646-1.157,2.724-2.654,5.269-4.349,7.645-3.404,4.754-7.57,8.849-12.035,12.499-8.963,7.304-19.187,12.802-29.772,17.205-5.31,2.179-10.754,4.03-16.294,5.518-1.382.386-2.779.712-4.169,1.064-1.391.334-2.79.622-4.172.99-2.774.696-5.534,1.434-8.335,2.04-22.295,5.193-45.26,8.015-68.261,7.249-11.47-.412-23-1.765-34.197-4.008-5.682-.872-11.379-2.291-16.794-4.332-5.429-2.024-10.682-4.564-15.515-7.778-2.431-1.583-4.722-3.378-6.904-5.292-2.123-1.981-4.166-4.065-5.881-6.425-1.702-2.359-3.182-4.897-4.199-7.637-.98-2.75-1.503-5.657-1.49-8.565l.112-2.177c.101-.718.239-1.431.357-2.146.089-.721.326-1.408.518-2.105.211-.691.36-1.403.668-2.059l.822-2.002c.299-.655.671-1.275,1.002-1.914.628-1.301,1.513-2.445,2.29-3.653,3.326-4.702,7.585-8.631,12.095-12.157Z"/>
      <path class="cls-3" d="m33.203,100.877c-6.435,4.831-12.348,10.665-15.958,17.907-3.692,7.16-4.587,15.65-2.381,23.311,2.191,7.688,7.028,14.39,12.939,19.678,5.948,5.301,12.941,9.351,20.314,12.359l.075.034.024.012c8.412,4.223,17.564,6.981,26.804,9.115,9.262,2.112,18.692,3.537,28.171,4.495,9.484.937,19.03,1.315,28.573,1.207,4.772-.055,9.544-.241,14.307-.584,4.76-.367,9.511-.869,14.241-1.518,4.731-.648,9.441-1.447,14.114-2.429,4.67-.995,9.294-2.199,13.86-3.581,9.12-2.776,18.043-6.332,26.243-11.161,8.187-4.794,15.713-10.852,21.375-18.392,5.632-7.539,9.146-16.554,9.985-25.881l-.004.194c-.327-4.883-1.687-9.652-3.96-13.955-2.242-4.325-5.386-8.169-9.047-11.453-7.334-6.605-16.337-11.243-25.626-14.821-9.336-3.547-19.064-6.113-28.912-7.998-4.928-.933-9.887-1.715-14.863-2.349-2.474-.329-4.981-.509-7.482-.721-1.251-.098-2.5-.224-3.753-.3l-3.764-.206c-20.054-1.078-40.304-.307-60.06,3.624-9.864,1.979-19.582,4.778-28.92,8.584-4.672,1.897-9.195,4.146-13.615,6.575-2.154,1.312-4.358,2.547-6.471,3.922l-6.209,4.332Zm-.179-.24l6.194-4.387c2.11-1.394,4.311-2.649,6.463-3.98,4.398-2.499,8.891-4.854,13.552-6.842,9.262-4.11,18.962-7.222,28.842-9.545,19.778-4.712,40.274-5.968,60.556-5.091l3.807.182c1.269.068,2.536.187,3.805.277,2.536.197,5.072.362,7.612.68,5.055.597,10.089,1.368,15.088,2.334,9.994,1.926,19.9,4.518,29.426,8.264,9.485,3.753,18.749,8.591,26.424,15.617,3.825,3.494,7.156,7.621,9.531,12.297,2.384,4.664,3.766,9.843,4.034,15.055v.018c.004.058.002.121-.004.177-.526,4.866-1.712,9.668-3.556,14.201-1.847,4.533-4.355,8.778-7.347,12.618-6.047,7.663-13.867,13.669-22.255,18.372-8.428,4.684-17.425,8.217-26.624,10.95-4.602,1.368-9.266,2.51-13.955,3.522-4.685,1.032-9.41,1.882-14.156,2.579-18.991,2.706-38.279,3.516-57.462,2.073-9.588-.715-19.151-2.015-28.567-4.114-9.402-2.108-18.714-4.978-27.386-9.454l.098.046c-7.548-3.243-14.697-7.583-20.657-13.292-5.942-5.662-10.734-12.773-12.762-20.797-1.014-3.994-1.23-8.179-.689-12.24.549-4.064,1.859-7.999,3.745-11.611,3.82-7.244,9.751-13.094,16.244-17.909Z"/>
      <path class="cls-6" d="m79.437,202.632c8.867,3.481,18.278,5.324,27.717,6.36,9.455,1.008,18.981,1.157,28.463.768,9.484-.403,18.937-1.408,28.272-3.022,9.339-1.571,18.584-3.701,27.581-6.571,8.991-2.864,17.765-6.463,25.878-11.204,4.04-2.388,7.914-5.056,11.459-8.108,3.539-3.051,6.758-6.491,9.325-10.382,2.571-3.877,4.573-8.155,5.669-12.691,1.092-4.535,1.351-9.268.871-13.937-.464-4.678-1.722-9.265-3.399-13.673-1.688-4.412-3.829-8.649-6.223-12.737l.044.062c-4.766-5.688-10.385-10.63-16.477-14.86-3.053-2.106-6.202-4.079-9.474-5.833-1.614-.916-3.289-1.72-4.948-2.549-1.693-.76-3.36-1.578-5.084-2.267-13.687-5.789-28.291-9.167-42.998-11.014-7.361-.935-14.769-1.478-22.184-1.669-3.708-.076-7.417-.093-11.124.003-1.857.029-3.74.149-5.597.139-1.864.007-3.727.017-5.569.103-3.696.103-7.382.412-11.059.768-3.669.433-7.335.899-10.962,1.594-7.27,1.298-14.418,3.217-21.37,5.655-13.865,4.889-27.05,12.162-37.557,22.361-5.211,5.106-9.637,11.028-12.629,17.619-2.987,6.575-4.306,13.923-3.333,21.089.923,7.173,4.033,14.012,8.453,19.858,2.202,2.935,4.691,5.669,7.382,8.2,2.724,2.496,5.605,4.831,8.625,6.985,12.15,8.581,26.056,14.458,40.251,18.952Zm-.101.283c-14.222-4.432-28.191-10.126-40.76-18.348-3.118-2.086-6.111-4.365-8.962-6.826-2.816-2.501-5.466-5.206-7.836-8.164-4.734-5.883-8.342-12.938-9.483-20.59-1.193-7.631.074-15.555,3.114-22.6,3.009-7.095,7.723-13.3,13.09-18.674,5.387-5.393,11.572-9.895,18.098-13.727,3.28-1.892,6.648-3.62,10.082-5.203,3.452-1.539,6.953-2.965,10.522-4.199,7.144-2.439,14.467-4.338,21.895-5.601,3.707-.677,7.449-1.123,11.19-1.532,3.749-.332,7.504-.615,11.266-.689,1.885-.071,3.752-.066,5.618-.057,1.873.026,3.716-.081,5.588-.091,3.752-.043,7.503.029,11.251.16,7.494.309,14.977.942,22.398,2.031,14.82,2.203,29.49,5.934,43.204,12.029,3.427,1.517,6.785,3.189,10.059,5.013,3.291,1.794,6.459,3.809,9.529,5.96,3.089,2.128,5.979,4.529,8.783,7.016,2.774,2.525,5.369,5.237,7.844,8.058.015.017.028.035.04.054l.005.008c4.901,8.178,8.87,17.144,10.066,26.759.608,4.784.463,9.694-.564,14.447-1.03,4.754-3.012,9.283-5.606,13.391-2.589,4.124-5.857,7.78-9.449,11.024-3.595,3.251-7.533,6.096-11.665,8.587-8.265,5.004-17.23,8.683-26.377,11.569-18.346,5.733-37.537,8.153-56.619,8.429-9.551.126-19.108-.36-28.57-1.576-4.732-.595-9.435-1.42-14.084-2.481-4.645-1.061-9.245-2.405-13.665-4.176Z"/>
      <path class="cls-26" d="m16.255,167.488c5.648,11.227,13.72,21.186,23.288,29.291,9.661,8.022,20.577,14.416,32.071,19.342,11.503,4.945,23.626,8.299,35.897,10.603,12.293,2.233,24.804,3.292,37.305,3.038,12.494-.289,24.984-1.886,37.095-5.065l2.276-.578c.755-.204,1.494-.463,2.242-.692l4.478-1.415c.753-.22,1.487-.489,2.214-.78l2.192-.842c1.455-.576,2.939-1.09,4.372-1.718l4.259-1.982,2.128-.996,2.056-1.135,4.111-2.274c1.354-.785,2.636-1.689,3.958-2.528,2.685-1.626,5.117-3.605,7.613-5.499,1.283-.906,2.383-2.028,3.565-3.056,1.15-1.061,2.352-2.075,3.437-3.198l3.184-3.439c.517-.583,1.092-1.123,1.562-1.741l1.326-1.916c.458-.626.853-1.3,1.254-1.969.393-.673.826-1.324,1.187-2.014.715-1.385,1.46-2.755,2.04-4.201.664-1.41,1.126-2.9,1.653-4.363.416-1.498.874-2.986,1.145-4.518.597-3.047.911-6.156.817-9.26-.075-3.101-.431-6.195-1.1-9.226-.689-3.026-1.639-5.989-2.803-8.867-4.787-11.507-12.979-21.336-22.422-29.367-2.369-2.015-4.862-3.878-7.407-5.661-2.536-1.79-5.278-3.311-7.922-4.956-1.312-.844-2.71-1.541-4.085-2.276l-4.129-2.198c-2.796-1.379-5.652-2.641-8.482-3.949-11.494-4.866-23.557-8.36-35.838-10.562-12.284-2.194-24.788-3.177-37.264-2.847-.78.016-1.561.001-2.339.044l-2.336.14-4.672.28c-3.111.228-6.205.648-9.309.961-3.08.488-6.166.944-9.236,1.507-3.051.671-6.132,1.243-9.171,1.944-12.125,2.76-23.751,7.705-34.257,14.404-5.225,3.39-10.128,7.305-14.465,11.787-4.28,4.519-8.062,9.582-10.689,15.256-2.744,5.619-4.113,11.864-4.285,18.117-.039,6.268,1.246,12.523,3.486,18.373Zm-.275.121c-2.308-5.887-3.614-12.162-3.656-18.497.046-6.325,1.383-12.658,3.97-18.457,2.504-5.848,6.205-11.12,10.436-15.855,4.289-4.694,9.151-8.858,14.376-12.484,10.466-7.242,22.313-12.461,34.681-15.54,3.085-.763,6.178-1.433,9.274-2.126,3.116-.594,6.26-1.08,9.393-1.596,3.157-.342,6.306-.789,9.471-1.042l4.754-.317,2.377-.158c.793-.048,1.587-.039,2.381-.061,25.387-.687,50.963,3.937,74.309,14.016,2.874,1.354,5.771,2.663,8.607,4.091l4.19,2.273c1.396.759,2.803,1.496,4.131,2.373,2.678,1.717,5.429,3.295,8.015,5.175,2.586,1.865,5.113,3.812,7.512,5.911,4.811,4.179,9.223,8.828,13.034,13.943,3.817,5.104,7.038,10.675,9.366,16.622,1.142,2.981,2.063,6.047,2.713,9.174.63,3.132.939,6.326.956,9.517.039,3.194-.35,6.384-1.012,9.498-.29,1.57-.768,3.092-1.206,4.623-.549,1.494-1.034,3.015-1.721,4.453-.605,1.474-1.374,2.868-2.113,4.276-.374.702-.818,1.362-1.223,2.045-.413.679-.819,1.361-1.295,2.003l-1.376,1.957c-.485.629-1.069,1.171-1.599,1.761l-3.256,3.47c-1.104,1.136-2.336,2.134-3.486,3.221-1.183,1.048-2.288,2.192-3.573,3.119-2.502,1.935-4.943,3.958-7.638,5.625-10.53,7.025-22.239,12.219-34.415,15.684-12.177,3.491-24.795,5.419-37.467,5.951-12.676.43-25.406-.554-37.865-2.941-1.554-.314-3.124-.552-4.665-.928l-4.627-1.11-2.31-.567c-.768-.196-1.523-.444-2.284-.664l-4.559-1.359c-1.53-.418-3.008-1-4.507-1.516l-4.477-1.603-4.389-1.831-2.191-.919-1.095-.46-1.07-.518c-11.486-5.339-22.328-12.117-31.822-20.471-9.395-8.443-17.399-18.456-23.05-29.763Z"/>
      <path class="cls-8" d="m43.814,104.795c-5.622,3.17-10.837,7.086-15.292,11.748-4.441,4.663-8.179,10.026-10.723,15.934-1.362,2.913-2.294,5.998-3.148,9.082-.701,3.125-1.321,6.276-1.512,9.474-.547,6.378.057,12.815,1.5,19.021,1.409,6.225,3.855,12.173,6.895,17.752,3.06,5.579,6.869,10.734,11.247,15.342,4.335,4.636,9.474,8.53,14.41,12.652l3.885,2.828c1.305.928,2.556,1.935,3.925,2.771,2.702,1.722,5.327,3.572,8.152,5.097,22.131,13.001,47.595,20.336,73.351,21.651,1.608.136,3.223.098,4.834.156,1.612.025,3.225.092,4.837.084l4.837-.123c1.613-.03,3.224-.092,4.833-.249,6.439-.504,12.879-1.002,19.198-2.241,6.334-1.159,12.524-3.042,18.484-5.437,5.96-2.398,11.695-5.351,17.049-8.877,10.675-7.059,19.814-16.583,25.525-27.935,2.837-5.668,4.745-11.791,5.487-18.057.749-6.263.356-12.648-1.136-18.778-1.478-6.138-4.008-12.003-7.217-17.462-.849-1.34-1.607-2.735-2.528-4.029l-2.784-3.867c-.949-1.274-2.02-2.458-3.023-3.691l-1.533-1.828-1.647-1.725c-1.109-1.14-2.17-2.324-3.317-3.428l-3.537-3.219c-2.426-2.077-4.856-4.161-7.419-6.076-5.083-3.88-10.396-7.471-15.946-10.663-5.541-3.205-11.275-6.08-17.156-8.622-5.884-2.541-11.944-4.655-18.073-6.535-3.062-.956-6.175-1.728-9.284-2.524-3.133-.688-6.263-1.402-9.431-1.925-6.325-1.076-12.702-1.941-19.123-2.301-6.418-.367-12.862-.37-19.289.04-6.429.404-12.823,1.31-19.144,2.581-12.661,2.506-24.889,7.122-36.187,13.385Zm-.147-.261c22.6-12.735,48.856-18.528,74.857-17.716,26.024.817,51.909,8.083,74.579,21.11,5.681,3.236,11.094,6.93,16.291,10.896,2.618,1.961,5.101,4.093,7.584,6.224l3.621,3.331c1.174,1.147,2.266,2.382,3.402,3.569l1.688,1.798,1.57,1.9c1.028,1.283,2.12,2.513,3.092,3.839l2.854,4.03c.943,1.349,1.726,2.808,2.595,4.207,3.295,5.706,5.896,11.86,7.397,18.318,1.506,6.448,1.902,13.183,1.015,19.754-.869,6.574-2.96,12.953-5.991,18.805-3.023,5.864-6.979,11.203-11.539,15.91-4.563,4.707-9.685,8.851-15.214,12.324-11.049,6.977-23.464,11.574-36.23,13.973-6.394,1.21-12.882,1.667-19.339,2.129-.808.051-1.614.139-2.425.16l-2.431.072-4.862.167c-1.621.023-3.243-.029-4.864-.04-1.621-.043-3.246.009-4.864-.113l-4.858-.291-2.428-.154-2.419-.26-4.84-.521c-1.613-.179-3.208-.486-4.816-.704-1.602-.255-3.218-.442-4.811-.754l-4.778-.948-2.39-.474-2.366-.583-4.73-1.18c-1.584-.37-3.119-.914-4.682-1.363-1.553-.481-3.121-.92-4.662-1.438l-4.593-1.65c-1.535-.543-3.069-1.089-4.558-1.748-3.001-1.262-6.032-2.464-8.937-3.946l-4.398-2.136-4.278-2.371c-2.891-1.518-5.586-3.366-8.358-5.089-1.401-.84-2.697-1.837-4.026-2.784l-3.966-2.874c-4.998-4.145-10.237-8.078-14.701-12.961-2.267-2.385-4.311-4.97-6.271-7.611-.91-1.37-1.862-2.714-2.713-4.12-.824-1.423-1.715-2.807-2.437-4.287-3.065-5.812-5.366-12.041-6.639-18.48-1.301-6.426-1.717-13.042-.979-19.547.287-3.261,1.009-6.462,1.812-9.621.957-3.119,1.992-6.223,3.455-9.139,1.366-2.959,3.078-5.738,4.895-8.429l1.453-1.957.729-.975.792-.926,1.583-1.851c.536-.609,1.128-1.167,1.689-1.753,4.536-4.642,9.776-8.575,15.44-11.724Z"/>
      <path class="cls-17" d="m19.108,131.694c-2.317,5.058-4.236,10.335-5.59,15.744-1.341,5.414-2.094,10.97-2.201,16.536-.083,5.566.508,11.132,1.733,16.545,1.235,5.413,3.123,10.661,5.528,15.648,4.806,10,11.71,18.854,19.602,26.588,3.965,3.859,8.196,7.444,12.617,10.777,4.43,3.323,9.063,6.374,13.829,9.201,9.554,5.626,19.684,10.271,30.15,13.991,10.466,3.721,21.308,6.43,32.322,8.019,5.507.793,11.057,1.302,16.622,1.489,5.565.178,11.141-.015,16.681-.555,5.539-.546,11.045-1.467,16.443-2.827,5.397-1.361,10.664-3.231,15.71-5.56l-.04.021c6.553-3.916,12.928-8.138,18.837-12.957,5.864-4.861,11.249-10.308,15.768-16.393,4.494-6.085,8.122-12.849,10.158-20.098,2.023-7.242,2.54-14.856,1.574-22.29-1.038-7.435-3.552-14.619-6.976-21.312-3.41-6.715-7.801-12.924-12.765-18.621-9.941-11.417-22.056-20.847-35.055-28.628-13.031-7.765-27.075-13.854-41.651-18.075-14.578-4.163-29.712-6.654-44.901-6.422-15.147.124-30.432,2.992-44.202,9.57-3.438,1.635-6.774,3.492-9.97,5.569-3.193,2.085-6.235,4.401-9.119,6.899-5.777,4.991-10.812,10.84-15.103,17.14Zm-.261-.147c4.27-6.399,9.325-12.229,15.036-17.364,5.722-5.119,12.121-9.489,18.972-12.998,13.739-7.02,29.174-10.424,44.588-11.018,7.722-.27,15.462.166,23.122,1.156,7.663.984,15.249,2.557,22.68,4.666,7.435,2.095,14.731,4.679,21.836,7.714,7.09,3.07,13.98,6.601,20.612,10.569,13.238,7.951,25.489,17.716,35.607,29.485,5.046,5.882,9.518,12.304,12.994,19.278,3.467,6.961,5.97,14.468,6.951,22.23.917,7.762.259,15.717-2.016,23.178-2.262,7.476-6.154,14.343-10.85,20.469-4.723,6.128-10.282,11.549-16.29,16.353-6.036,4.777-12.455,9.021-19.08,12.905l-.041.021c-5.117,2.342-10.463,4.137-15.896,5.555-5.435,1.42-10.98,2.397-16.563,2.997-5.584.606-11.205.808-16.819.734-5.616-.065-11.228-.455-16.807-1.134-11.159-1.356-22.18-3.867-32.865-7.41-10.685-3.543-21.031-8.17-30.755-13.887-4.869-2.847-9.566-5.994-14.052-9.422-4.493-3.418-8.763-7.137-12.728-11.164-7.95-8.017-14.663-17.343-19.296-27.648-2.305-5.151-4.085-10.541-5.186-16.069-1.097-5.527-1.529-11.175-1.308-16.785.189-5.614,1.054-11.189,2.459-16.612,1.388-5.433,3.327-10.701,5.693-15.799Z"/>
    </g>
    <g>
      <text class="cls-16" transform="translate(296.867 144.556)"><tspan class="cls-12" x="0" y="0">S</tspan><tspan class="cls-19" x="70.01" y="0">ap</tspan><tspan class="cls-4" x="198.379" y="0">r</tspan><tspan x="241.762" y="0">u </tspan><tspan class="cls-1" x="333.517" y="0">L</tspan><tspan x="399.753" y="0">ab</tspan></text>
      <text class="cls-15" transform="translate(591.34 214.774)"><tspan class="cls-24" x="0" y="0">a</tspan><tspan x="32.197" y="0">t U</tspan><tspan class="cls-11" x="112.152" y="0">C</tspan><tspan class="cls-25" x="155.187" y="0">L</tspan><tspan x="192.234" y="0">A</tspan></text>
    </g>
  </g>
</svg>