<?xml version="1.0" encoding="UTF-8"?>
<svg id="Layer_2" data-name="Layer 2" xmlns="http://www.w3.org/2000/svg" viewBox="0 0 191.463 191.661">
  <defs>
    <style>
      .cls-1 {
        stroke: #2ee0e6;
      }

      .cls-1, .cls-2, .cls-3 {
        fill: none;
        stroke-linecap: round;
        stroke-linejoin: round;
        stroke-width: 3px;
      }

      .cls-2 {
        stroke: #ff2f00;
      }

      .cls-3 {
        stroke: #3fa9f5;
      }
    </style>
  </defs>
  <g id="Layer_1-2" data-name="Layer 1">
    <g id="Layer_2-2" data-name="Layer 2">
      <g>
        <g>
          <polyline class="cls-3" points="61.14 3.112 65.648 1.5 54.069 9.51 73.452 2.198 48.7 15.786 77.743 4.045"/>
          <polyline class="cls-3" points="21.899 25.936 37.525 15.788 26.722 26.682 41.768 17.176 30.867 28.071 79.122 4.835 35.145 29.654 82.46 7.098 38.998 31.007 85.077 9.189 43.956 32.391 66.777 19.839 49.393 32.988 61.647 25.953"/>
          <polyline class="cls-3" points="73.299 15.343 86.689 10.602 77.67 17.285 89.395 13.138 80.121 19.398 91.572 15.303 82.469 21.654 93.778 17.555 84.723 23.929 95.969 19.794 86.923 26.184 98.183 21.986 89.06 28.34 100.42 24.053 91.072 30.29 102.677 25.87 93.639 32.593 106.518 27.683 96.396 34.767 117.434 27.19 99.528 36.768 129.389 26.714 102.818 38.272 135.103 27.68 106.715 39.257 138.714 28.955 114.102 39.329 141.946 30.705 126.39 37.554 144.239 32.445 133.377 37.561 145.902 34.084 135.803 38.931 147.235 35.723 137.224 40.93 148.515 37.676 138.137 42.71 149.432 39.371 138.933 44.559 150.238 41.122 139.695 46.53 150.989 42.99 140.39 48.424 151.645 44.793 141.119 50.383 152.299 46.667 141.836 52.18 152.92 48.397 142.773 54.258 153.728 50.407 143.838 56.216 154.687 52.304 145.008 57.945 155.943 53.927 146.428 59.578 158.451 55.125 148.293 61.146 162.563 55.888 150.504 62.399 166.984 56.403 152.972 63.306 170.948 56.864 156.441 64.076 175.035 57.534 160.367 64.548 178.239 58.37 164.817 64.855 180.778 59.425 168.7 65.14 182.433 60.512 172.287 65.677 183.694 61.839 173.155 67.091 184.44 63.215 172.607 68.865 184.761 64.563 171.637 70.939 184.725 66.13 170.375 73.335 184.258 68.001 169.213 75.584 183.467 69.868 168.279 77.63 182.483 71.706 167.591 79.55 181.367 73.585 167.159 81.587 180.031 75.787 167.15 83.526 178.749 78.1 167.568 85.094 177.976 80.085 168.28 86.425 178.432 81.457 169.243 87.612 179.59 82.495 170.372 88.649 180.925 83.392 171.714 89.631 182.418 84.269 173.276 90.599 184.051 85.175 174.74 91.417 185.478 85.99 176.137 92.18 186.75 86.793 177.415 92.919 187.837 87.602 178.826 93.875 188.925 88.678 179.476 95.154 189.65 89.842 164.995 105.78 189.963 91.127 160.892 110.532 189.776 92.688 159.422 113.574 188.876 94.674 158.766 115.734 187.157 96.894 158.336 117.805 182.509 100.934 158.019 119.892 168.529 111.704 157.767 121.88 167.685 113.946 157.5 123.856 167.258 115.866 157.109 126.064 166.898 117.847 156.429 128.408 166.565 119.685"/>
          <polyline class="cls-3" points="136.62 146.675 149.761 132.413 140.301 144.559 152.799 131.38 142.728 143.654 166.307 120.954 145.074 142.866 165.86 122.803 147.781 141.913 165.141 125.092 150.901 140.589 163.952 127.884 154.312 138.665 162.039 131.107"/>
          <polyline class="cls-3" points="130.593 142.943 133.594 139.472 125.243 152.003 138.876 135.849 121.416 159.531 141.789 134.665"/>
          <polyline class="cls-3" points="9.279 11.424 12.343 9.336 6.96 17.871 19.491 9.211 7.159 23.457 25.138 10.85 8.008 28.33 29.974 12.729 9.019 32.524 34.183 14.468 10.31 37.124 20.485 28.59 11.649 41.603 21.279 33.207 12.824 45.583 22.255 37.093 13.89 49.567 23.293 40.837 14.621 54.131 24.387 44.738 5.569 69.909 25.343 48.371 3.38 79.202 26.279 52.513 3.917 85.433 26.99 57.259 5.234 90.415 27.002 62.659 6.866 94.432 24.546 70.539 8.857 98.097 15.475 87.991 11.044 101.305 17.685 91.043 13.345 104.136 20.145 93.558 15.787 106.749 22.702 95.946 17.951 108.844 24.919 97.93 20.132 110.828 27.102 99.888 22.258 112.705 29.179 101.819 24.704 114.892 31.506 104.156 27.208 117.296 33.827 106.79 29.194 119.55 35.649 109.227 30.853 122.832 37.432 112.148 31.747 127.476 38.963 115.444 32.379 132.145 40.104 118.884 33.02 137.346 41.064 123.046 33.684 142.197 41.744 127.356 34.481 146.87 42.281 131.989 35.494 151.402 42.778 136.999 36.629 155.211 43.289 141.63 37.992 158.668 43.97 146.141 39.377 161.33 44.878 149.589 41.206 163.937 47.388 150.722 43.277 165.9 50.831 149.962 45.248 166.956 53.891 149.008 47.595 167.409 57.039 148.172 50.179 167.153 59.868 147.803 53.132 166.249 62.466 147.981 56.645 164.814 64.982 148.834 59.464 163.811 66.764 150 62.231 163.468 68.507 151.684 64.085 164.7 69.992 153.574 65.539 166.91 71.393 155.771 66.887 169.524 72.731 158.253 68.09 172.141 73.918 160.738 69.124 174.509 74.922 163.01 70.155 176.894 75.907 165.328 71.347 179.56 77.027 167.961 72.343 181.648 77.956 170.049 73.461 183.773 79.002 172.189 74.758 185.892 80.266 174.259 76.077 187.623 81.847 175.392 77.548 189.02 85.656 172.211 79.342 189.989 93.529 162.404 81.44 190.161 98.395 158.339 83.642 189.356 101.069 157.308 86.78 186.725 103.25 157.179 92.576 179.121 105.191 157.564 99.128 171.026 106.97 158.286 101.591 170.382 108.553 159.17 103.16 170.983 109.933 160.081 104.715 171.904 111.398 161.133 106.089 172.852 112.746 162.106 107.421 173.808 114.099 163.009 108.79 174.744 115.556 163.795 110.16 175.561 117.174 164.227 111.433 176.147 142.795 134.334 112.821 176.555 145.387 133.587 114.625 176.645 148.277 132.827 116.694 176.078 132.096 153.382 119.284 174.324 128.367 160.571"/>
        </g>
        <g>
          <polyline class="cls-1" points="151.506 116.406 174.794 99.543 156.185 113.613 173.959 100.95 160.872 111.139 172.279 103.076"/>
          <polyline class="cls-1" points="83.837 8.104 88.551 6.784 76.544 13.042 95.457 7.416 71.715 16.876 98.338 8.458"/>
          <polyline class="cls-1" points="43.752 19.497 57.58 12.591 47.07 20.69 60.233 14.187 49.647 22.029 62.731 15.605 51.854 23.271 65.104 16.804 54.019 24.531 67.876 17.827 56.389 25.909 100.344 9.439 59.157 27.459 103.021 11.083 62.005 28.92 105.3 12.782 64.866 30.18 107.209 14.42 68.16 31.265 90.144 21.736 72.25 31.864 84.646 26.222"/>
          <polyline class="cls-1" points="95.312 19.386 108.555 15.676 98.09 20.565 110.078 17.204 99.742 22 111.465 18.676 101.491 23.765 113.05 20.433 102.9 25.296 114.372 21.94 104.459 27.061 115.87 23.663 105.902 28.725 117.296 25.276 107.302 30.327 118.716 26.819 108.642 31.819 120.129 28.24 109.937 33.195 121.605 29.522 111.504 34.748 124.266 30.719 112.896 36.006 129.246 30.96 114.387 37.201 136.857 30.586 116.415 38.569 144.418 30.681 118.472 39.643 148.662 31.311 120.921 40.539 151.682 32.168 123.807 41.16 153.881 33.086 128.233 41.445 155.854 34.195 134.111 41.083 157.286 35.221 141.092 40.377 158.404 36.202 146.928 40.344 159.504 37.399 148.728 41.289 160.341 38.542 149.374 42.383 160.957 39.588 149.823 43.593 161.488 40.71 150.164 44.899 161.932 41.912 150.464 46.426 162.327 43.317 150.659 47.661 162.567 44.457 150.861 49.112 162.782 45.805 151.076 50.665 162.957 47.259 151.301 52.07 163.091 48.591 151.579 53.501 163.23 49.963 151.941 54.922 163.403 51.343 152.39 56.275 163.641 52.673 152.998 57.624 164.036 54.008 153.63 58.695 164.654 55.026 154.415 59.725 165.903 55.865 155.559 60.854 167.862 56.698 156.929 61.862 170.059 57.422 158.201 62.603 171.932 57.966 159.589 63.264 173.803 58.477 161.217 63.898 175.783 59.014 162.873 64.445 177.599 59.53 165.07 65.059 179.737 60.193 167.102 65.562 181.473 60.816 168.961 65.997 182.89 61.413 170.849 66.448 184.177 62.071 172.926 66.993 185.432 62.884 174.402 67.451 186.219 63.559 175.775 68.05 186.91 64.359 176.034 69.187 187.44 65.333 174.555 71.014 187.711 66.411 172.428 73.126 187.69 67.562 170.522 74.95 187.436 68.56 168.489 76.978 186.884 69.745 166.712 78.941 186.015 71.044 165.06 81.119 184.516 72.782 164.117 82.693 182.969 74.321 163.417 84.269 180.942 76.18 163.013 85.711 178.707 78.19 162.834 87.18 176.309 80.468 162.837 88.198 174.821 82.075 162.943 89.272 173.704 83.642 163.122 90.256 173.365 84.804 163.374 91.265 173.41 85.844 163.686 92.282 173.611 86.847 163.989 93.152 173.848 87.691 164.367 94.171 174.173 88.669 164.734 95.137 174.504 89.59 165.112 96.178 174.857 90.573 165.399 97.067 175.137 91.403 165.683 98.167 175.437 92.415 165.816 99.028 175.62 93.183 165.804 100.019 175.764 94.006"/>
          <polyline class="cls-1" points="145.207 112.699 148.636 109.896 142.038 116.716 154.44 106.612 140.657 119.288 158.795 104.586 139.556 121.866 175.846 94.909 138.677 124.289 175.825 96.037 137.984 126.39 175.667 97.122 137.274 128.622 175.297 98.393 136.561 130.811 149.037 118.735 135.771 133.037 147.793 121.059 134.421 135.979 146.911 123.138"/>
          <polyline class="cls-1" points="116.766 151.488 126.937 138.249 118.633 150.435 128.155 138.19 120.093 150.052 129.477 138.087 121.579 149.81 131.022 137.876 122.784 149.667 132.483 137.513 124.34 149.5 146.362 124.554 125.693 149.33 145.616 126.567 126.977 149.115 144.924 128.452 128.253 148.826 144.22 130.31 129.782 148.345 143.336 132.505 131.881 147.393 141.992 135.469 134.316 145.757 140.184 138.784"/>
          <polyline class="cls-1" points="110.316 147.284 113.135 143.416 105.913 156.114 117.255 140.146 102.828 163.006 119.16 139.326"/>
          <polyline class="cls-1" points="18.24 60.848 40.605 40.235 24.123 58.372 40.148 43.822 28.548 56.951 39.316 47.207"/>
          <polyline class="cls-1" points="5.74 47.593 8.777 44.378 4.011 53.555 15.266 41.69 4.016 57.094 19.704 40.658 4.608 61.264 41.082 28.064 5.28 64.002 40.991 30.639 6.198 66.934 40.922 33.582 7.084 69.327 40.847 36.149 8.25 72.118 40.677 39.368 9.444 74.721 16.969 65.105 10.881 77.624 18.19 68.113 11.983 79.737 19.204 70.227 13.287 82.166 20.435 72.627 14.504 84.381 21.598 74.802 15.812 86.74 22.858 77.107 17.113 89.103 24.123 79.402 18.246 91.201 25.228 81.43 19.321 93.277 26.289 83.419 20.668 96.077 27.642 86.058 21.704 98.629 28.75 88.356 22.367 101.224 29.669 90.408 22.627 105.527 30.764 93.137 22.518 109.876 31.617 95.62 22.266 114.808 32.394 98.403 22.048 119.956 33.015 101.537 22.02 125.049 33.426 105.149 22.214 129.116 33.569 108.641 22.712 133.539 33.474 113.343 23.411 137.238 33.169 118.228 24.206 140.21 32.824 122.863 25.047 142.66 32.582 127.066 25.94 144.798 32.51 130.874 27.043 146.997 32.749 134.637 28.406 149.205 33.93 137.097 29.791 150.989 35.682 138.065 31.363 152.572 37.698 138.715 32.66 153.597 39.323 139.085 34.162 154.513 41.141 139.408 35.944 155.312 43.203 139.734 37.373 155.768 44.773 140.004 39.093 156.147 46.559 140.382 40.643 156.382 48.076 140.808 42.165 156.546 49.488 141.309 43.943 156.706 51.047 142.034 45.601 156.879 52.422 142.87 47.196 157.128 53.689 143.85 49.08 157.649 55.138 145.29 50.624 158.548 56.351 146.844 51.857 160.358 57.512 148.704 52.672 162.151 58.362 150.312 53.364 163.897 59.089 151.868 54.246 166.316 59.998 154.056 55.083 168.743 60.837 156.294 55.78 170.802 61.511 158.237 56.611 173.241 62.291 160.59 57.486 175.712 63.084 163.04 58.205 177.641 63.724 164.993 59.084 179.821 64.493 167.247 59.823 181.473 65.135 168.994 60.573 182.997 65.798 170.611 61.434 184.52 66.592 172.189 62.531 186.138 67.895 173.263 63.676 187.436 71.066 170.084 64.749 188.311 75.345 164.366 66.093 188.985 79.454 159.806 67.47 189.211 82.086 157.909 69.059 188.891 84.135 157.105 71.03 187.676 85.854 156.939 73.256 185.392 87.142 157.136 77.023 180.156 88.483 157.624 81.08 174.325 89.579 158.215 84.141 171.351 90.771 159.042 85.653 171.574 91.912 159.978 86.834 172.394 92.991 160.967 87.68 173.12 93.795 161.747 88.522 173.907 94.609 162.556 89.574 174.94 95.646 163.579 90.548 175.905 96.626 164.498 91.319 176.648 97.418 165.177 92.078 177.343 98.218 165.777 92.836 177.987 99.056 166.261 93.715 178.652 100.16 166.516 94.819 179.334 120.408 138.955 95.735 179.753 121.935 138.643 96.88 180.059 123.572 138.441 98.113 180.095 125.084 138.333 99.389 179.802 126.417 138.27 100.99 178.946 112.683 158.676 103.124 176.983 109.801 165.144"/>
          <polyline class="cls-1" points="31.916 5.517 35.238 3.827 29.203 9.775 40.422 3.966 28.222 13.953 44.522 5.326 27.867 17.625 47.792 6.861 27.766 20.702 50.383 8.267 27.765 24.319 53.308 9.98 27.803 27.891 56.092 11.679 27.791 30.968 41.901 21.542 27.646 34.098 41.35 24.563"/>
        </g>
        <g>
          <line class="cls-2" x1="150.306" y1="36.07" x2="137.656" y2="16.339"/>
          <polyline class="cls-2" points="31.297 137.546 18.245 117.277 31.585 130.771 2.003 84.866 32.268 124.596 1.5 76.857 32.748 117.902 2.878 71.558 31.873 108.512 5.362 67.382 18.524 80.645 8.086 64.461 21.978 77.792 11.562 61.639 25.147 75.411 14.789 59.347 28.124 72.987 17.844 57.042 30.86 70.269 20.232 53.784 33.547 66.458 19.899 45.289 35.335 61.775 19.286 36.884 36.093 55.978 19.567 30.349 35.813 47.219 21.204 24.565 35.396 39.69 23.491 21.23 37.828 35.822 26.86 18.815 43.593 36.775 31.279 17.676 49.942 37.976 36.994 17.888 54.953 38.407 42.399 18.926 59.288 38.013 47.804 20.188 63.193 36.661 53.085 20.967 66.786 34.096 56.641 18.345 69.491 31.131 58.958 14.775 71.817 27.889 61.155 11.332 74.32 24.038 63.848 7.778 77.186 20.112 67.222 4.64 82.226 19.968 71.054 2.617 93.448 28.669 76.17 1.821 100.898 32.565 81.741 2.786 107.027 33.481 90.056 7.089 111.461 33.013 99.617 14.585 115.911 31.877 106.926 17.893 120.379 30.372 111.577 16.669 124.017 29.131 115.263 15.5 128.629 28.02 119.782 14.241"/>
          <polyline class="cls-2" points="138.909 46.625 135.74 41.68 146.659 51.862 122.218 13.751 152.248 53.436 126.553 13.353 157.404 54.377 131.426 13.838 163.802 55.678 153.486 39.551"/>
          <line class="cls-2" x1="64.537" y1="162.005" x2="51.297" y2="141.384"/>
          <polyline class="cls-2" points="57.439 179.05 53.943 173.602 65.132 183.111 36.849 139.074 68.954 182.239 41.344 139.234 72.742 179.907 47.068 139.902 75.978 177.066 67.843 164.373 79.121 173.915 71.144 161.464 81.974 171.063 74.046 158.687 85.283 168.322 77.277 155.82 91.574 170.4 80.684 153.386 99.157 174.229 84.673 151.582 104.626 174.51 89.749 151.234 108.552 172.925 96.325 153.781 112.164 170.013 104.811 158.491 115.135 166.4 108.056 155.304 117.356 162.927 110.022 151.429 119.409 159.197 111.967 147.529 121.523 155.071 114.186 143.568 124.083 150.415 117.122 139.501 127.794 147.47 120.641 136.252 131.874 146.712 124.011 134.375 135.932 146.119 127.685 133.173 140.288 145.155 132.177 132.413 144.249 143.627 136.831 131.968 148.115 141.147 141.776 131.178 151.467 137.787 143.808 125.741 154.12 133.72 144.653 118.835 156.17 128.42 146.133 112.643 157.479 121.966 148.57 107.966 158.502 115.995 151.371 104.791 161.333 111.886 154.979 101.901 165.019 109.459 158.705 99.534 168.74 107.216 162.485 97.381 172.481 104.841 166.303 95.124 176.209 102.051 158.528 74.282 179.391 98.88 159.985 68.408 181.745 95.093 161.948 64.011 182.583 89.514 163.852 60.117 175.242 69.437 156.743 40.479 177.704 64.852 162.975 41.789 179.708 60.616 168.556 43.151 180.896 55.348 174.721 45.674"/>
          <polyline class="cls-2" points="22.774 152.603 19.903 148.144 30.669 157.363 17.224 136.477 36.629 158.002 17.363 128.069 41.658 157.976 17.971 121.17 46.64 158.751 33.814 138.803"/>
        </g>
      </g>
    </g>
  </g>
</svg>