<?xml version="1.0" encoding="UTF-8"?>
<svg id="Layer_2" data-name="Layer 2" xmlns="http://www.w3.org/2000/svg" viewBox="0 0 1261.766 688.298">
  <defs>
    <style>
      .cls-1 {
        fill: none;
        stroke: #3fa9f5;
        stroke-miterlimit: 10;
        stroke-width: 2px;
      }
    </style>
  </defs>
  <g id="Layer_1-2" data-name="Layer 1">
    <path class="cls-1" d="m10.893,49.899c.991-1.19,31.21,21.8,32.181,20.535.949-1.235-28.393-25.446-27.444-26.715.938-1.255,32.212,20.372,33.167,19.119s-27.931-26-26.942-27.216c.999-1.228,30.808,22.352,31.859,21.198,1.069-1.174-24.803-29.02-23.661-30.079,1.164-1.08,26.51,27.173,27.768,26.253,1.275-.932-17.401-33.954-16.009-34.68,1.403-.732,16.67,33.888,18.202,33.469,1.501-.41-4.109-37.894-2.514-38.076,1.543-.177,5.659,37.608,7.262,37.577,1.562-.031,3.315-37.997,4.907-37.951,1.574.045,1.897,38.091,3.476,38.15,1.587.06,4.075-37.873,5.642-37.857,1.6.016,4.149,37.956,5.702,37.862,1.604-.097-1.45-37.915.075-38.199s12.475,36.03,14.005,35.526c1.482-.487-10.323-36.629-8.844-37.249,1.448-.607,18.213,33.508,19.659,32.84s-13.027-35.856-11.591-36.515c1.452-.667,18.053,33.526,19.501,32.931,1.489-.611-9.902-36.88-8.418-37.343,1.541-.481,11.679,36.047,13.214,35.806,1.581-.248,1.359-38.083,2.934-37.988,1.257.076-5.905,36.917-4.752,37.391,1.12.46,20.363-32.022,21.408-31.285.987.695-21.812,31.054-20.872,31.912.903.824,28.215-25.579,29.091-24.678.865.889-25.616,28.191-24.76,29.086.872.911,28.618-25.048,29.498-24.204.924.886-22.856,30.506-21.904,31.235,1.026.787,21.642-30.85,22.724-30.347,1.001.465-12.758,35.868-11.732,36.259s14.984-34.974,16.023-34.619c1.045.357-10.223,36.654-9.185,37.01,1.045.359,15.12-34.959,16.141-34.563,1.029.399-13.075,35.658-12.086,36.134s20.409-32.14,21.341-31.546c.916.584-20.882,31.59-20.039,32.324.807.703,28.666-24.99,29.393-24.116,1.296,1.56-28.103,25.622-27.03,27.285,1.091,1.691,35.026-15.384,35.919-13.601s-32.988,19.035-32.26,20.901,37.239-8.729,37.828-6.81c.585,1.905-35.498,13.971-35.016,15.921.478,1.935,37.964-4.521,38.371-2.556.405,1.955-36.508,11.223-36.144,13.193s38.101-2.852,38.453-.883c.293,1.642-37.009,9.025-36.802,10.639.211,1.649,38.165-.653,38.296.975.133,1.651-37.699,5.516-37.639,7.154.061,1.649,38.075,2.62,38.072,4.265s-38.023,2.634-38.078,4.283c-.054,1.639,37.825,5.014,37.729,6.665-.095,1.633-38.121.735-38.247,2.389-.124,1.628,37.615,6.347,37.471,8.003-.145,1.675-38.125-.397-38.31,1.267s37.332,7.909,37.114,9.571-38.087-1.923-38.331-.264,37.061,9.069,36.798,10.726-38.042-2.779-38.317-1.123,36.929,9.562,36.651,11.218-38.036-2.956-38.312-1.298,36.961,9.41,36.696,11.071c-.269,1.688-38.162-1.267-38.312.44s37.67,5.711,37.612,7.425-38.065,2.852-38.059,4.566,38.032,2.85,38.077,4.562-37.881,4.546-37.825,6.255,38.097,2.324,38.139,4.03c.043,1.716-37.923,3.918-37.921,5.62.002,1.719,37.96,4.169,37.893,5.868-.084,2.104-38.108,3.589-38.094,5.714.014,2.112,38.045,2.965,38.173,5.081s-37.508,7.687-37.249,9.787,38.089-1.789,38.496.285-36.026,12.988-35.449,15.021,37.245-7.986,38.008-6.012-33.022,19.398-32.057,21.289c.957,1.875,34.8-15.397,35.974-13.618.865,1.311-27.807,26.056-26.777,27.14,1.063,1.118,27.469-26.097,28.679-25.178s-18.49,33.345-17.16,34.111c1.312.756,20.161-32.248,21.558-31.599,1.374.638-12.315,36.092-10.886,36.668,1.407.566,16.681-34.273,18.116-33.727,1.423.541-10.831,36.531-9.406,37.089s17.392-33.962,18.79-33.35c1.564.685-13.397,35.648-11.857,36.463,1.514.801,21.405-31.599,22.908-30.731,1.491.861-16.069,34.62-14.577,35.488s21.613-31.393,23.122-30.574c1.527.829-13.968,35.564-12.415,36.282,1.58.73,17.268-33.849,18.888-33.297,1.64.558-6.242,37.685-4.547,37.995,1.683.308,6.808-37.211,8.558-37.212,1.736,0,4.443,37.93,6.204,37.842,1.738-.087.735-38.105,2.485-38.272,1.737-.166,7.887,37.365,9.625,37.124s-2.515-38.035-.793-38.346,10.931,36.59,12.635,36.212c1.717-.381-5.551-37.713-3.868-38.158,1.705-.451,13.852,35.59,15.51,35.078,1.691-.522-8.643-37.122-7.016-37.704,1.468-.524,16.469,34.412,17.917,33.823s-12.066-36.135-10.64-36.775,18.925,33.118,20.331,32.436-14.203-35.364-12.815-36.079,20.46,32.185,21.834,31.447-15.424-34.861-14.06-35.614,21.181,31.706,22.54,30.947c1.367-.764-15.793-34.707-14.436-35.464,1.371-.765,23.247,30.233,24.515,29.293,1.255-.929-21.481-31.387-20.299-32.44,1.166-1.039,28.322,25.55,29.445,24.437,1.112-1.103-24.824-28.934-23.728-30.067s29.347,24.311,30.451,23.195c1.111-1.123-24.189-29.526-23.042-30.589,1.161-1.076,27.044,26.732,28.269,25.764,1.24-.98-19.232-32.973-17.898-33.795,1.323-.816,22.737,30.612,24.062,29.778,1.317-.829-17.67-33.785-16.35-34.623s22.975,30.424,24.294,29.59-17.569-33.847-16.245-34.672,22.554,30.727,23.886,29.919-16.734-34.276-15.388-35.06,21.44,31.501,22.802,30.751c1.371-.755-15.096-35.036-13.713-35.745,1.614-.828,17.108,33.733,18.851,33.244,1.721-.483-4.103-37.955-2.291-38.192,1.768-.231,6.827,37.458,8.651,37.382,1.79-.075,2.815-38.077,4.63-38.076,1.806,0,3.59,38.02,5.392,38.022,1.82.002,2.905-37.999,4.692-38.069,1.829-.072,6.811,37.628,8.575,37.4,1.818-.234-4.006-37.699-2.291-38.184,1.653-.467,13.631,35.633,15.268,35.171,1.651-.466-6.934-37.526-5.292-37.979,1.651-.457,13.23,35.774,14.878,35.337s-6.124-37.674-4.467-38.084,12.054,36.175,13.722,35.8-4.513-37.906-2.832-38.238c1.669-.329,10.128,36.75,11.822,36.47,1.675-.277-2.19-38.115-.484-38.337,1.716-.223,8.795,37.144,10.503,36.879s-2.682-38.054-.978-38.343,9.852,36.862,11.556,36.566-2.995-38.049-1.29-38.335,9.388,36.964,11.097,36.706-1.736-38.142-.019-38.353,7.384,37.392,9.109,37.244,1.082-38.175,2.815-38.243c1.761-.068,6.931,37.555,8.694,37.305,1.741-.247-3.126-37.968-1.383-38.337,1.723-.365,11.991,36.244,13.716,35.813,1.715-.429-5.906-37.711-4.19-38.152s12.495,36.026,14.213,35.624c1.733-.405-4.217-37.979-2.484-38.29,1.754-.315,8.616,37.053,10.368,36.891,1.769-.164,2.31-38.148,4.077-38.099,1.788.049-.575,37.912,1.196,38.255,1.741.337,12.778-35.984,14.507-35.442,1.693.531-9.185,36.983-7.499,37.637,1.662.645,17.53-33.908,19.189-33.214s-11.165,36.527-9.509,37.198c1.673.678,16.749-34.218,18.427-33.632,1.71.597-7.399,37.51-5.679,37.935,1.756.434,9.957-36.592,11.728-36.416,1.719.171-.637,38.136,1.069,38.334,1.715.199,8.082-37.301,9.786-37.078s-1.764,38.104-.061,38.35,9.03-37.08,10.731-36.816-2.587,38.061-.886,38.34,9.665-36.916,11.364-36.626-3.082,38.028-1.382,38.326,9.98-36.828,11.68-36.527c1.679.298-1.724,38.14-.015,38.302,1.695.16,5.948-37.637,7.664-37.569,1.703.068,2.42,38.086,4.135,38.107s3.827-37.969,5.538-37.953,2.665,38.03,4.372,38.082,5.474-37.8,7.175-37.668c1.71.132-.9,38.045.787,38.3s10.897-36.615,12.557-36.193-4.977,37.853-3.281,38.184c1.681.327,9.962-36.802,11.667-36.533,1.694.267-2.195,38.097-.489,38.336s8.719-37.156,10.421-36.914-2.323,38.057-.629,38.333c1.703.278,10.257-36.788,11.936-36.445,1.691.345-5.352,37.7-3.697,38.144,1.666.446,14.624-35.293,16.24-34.715s-10.556,36.607-8.967,37.276c1.58.665,18.641-33.317,20.2-32.581s-13.677,35.591-12.143,36.376,20.691-32.071,22.206-31.257-15.105,35.034-13.599,35.861,21.271-31.669,22.776-30.847c1.513.827-14.985,35.106-13.472,35.908,1.526.809,20.431-32.191,21.96-31.428,1.42.708-16.045,34.437-14.714,35.301,1.323.86,24.657-29.116,25.912-28.136,1.242.97-21.811,31.211-20.616,32.265,1.183,1.044,27.978-25.926,29.133-24.833,1.149,1.088-23.99,29.639-22.85,30.743s28.564-25.234,29.713-24.146-23.334,30.199-22.152,31.244c1.193,1.055,26.711-27.111,27.952-26.139,1.228.962-20.804,31.956-19.57,32.9s25.584-28.278,26.816-27.333c1.239.95-20.867,31.89-19.648,32.853,1.225.968,26.405-27.537,27.596-26.541,1.197,1.001-22.617,30.636-21.47,31.682s28.645-25.214,29.734-24.103-25.905,27.861-24.895,29.049c1.003,1.18,31.875-20.985,32.788-19.713s-30.298,22.907-29.555,24.239c.755,1.354,35.454-14.082,36.066-12.671s-34.239,16.579-33.738,18.042c.498,1.452,37.216-8.365,37.635-6.871.413,1.475-35.961,12.583-35.595,14.093.361,1.486,37.696-5.714,38.04-4.201.34,1.493-36.357,11.506-36.006,13.02.346,1.492,37.625-5.989,38.009-4.483.355,1.396-36.263,11.626-35.959,12.974.316,1.402,37.815-4.881,38.069-3.52.263,1.407-37.006,8.893-36.815,10.269.196,1.411,38.109-1.351,38.222.04.115,1.41-37.747,4.693-37.723,6.098s37.973,3.462,37.9,4.876c-.072,1.393-38.027-.502-38.2.913-.169,1.375,37.132,8.657,36.861,10.066-.273,1.421-37.705-5.215-38.036-3.841-.338,1.403,35.994,12.59,35.594,13.952-.405,1.379-37.011-8.878-37.48-7.533s34.571,16.087,34.034,17.412-35.961-12.475-36.563-11.172c-.595,1.289,32.909,19.255,32.248,20.534-.65,1.258-34.734-15.589-35.447-14.333-.697,1.228,31.275,21.801,30.516,23.035-.773,1.255-34.294-16.667-35.016-15.369-.718,1.289,31.973,20.729,31.279,22.04s-34.954-15.176-35.648-13.868,31.973,20.789,31.252,22.078-34.207-16.697-34.984-15.443c-.781,1.262,30.006,23.564,29.146,24.763s-31.59-21.12-32.558-20,25.285,28.561,24.191,29.571c-1.197,1.106-28.021-25.856-29.235-24.761s22.79,30.599,21.56,31.673-27.171-26.737-28.422-25.689,21.538,31.499,20.263,32.516-25.832-28.021-27.135-27.042,19.695,32.689,18.361,33.625-23.904-29.669-25.272-28.786,17.155,34.096,15.75,34.92-20.749-31.899-22.216-31.187,12.606,36.021,11.096,36.645c-1.501.621-16.838-34.184-18.371-33.621s9.651,36.906,8.107,37.436-15.338-34.923-16.882-34.401,9.34,36.959,7.806,37.501-16.3-34.512-17.814-33.923,11.647,36.255,10.165,36.919-19.576-32.761-21.017-32.001,15.6,34.76,14.194,35.584-22.42-30.866-23.803-30.007,17.444,33.915,16.071,34.786-22.949-30.444-24.329-29.587,16.841,34.248,15.441,35.067c-1.408.823-21.246-31.608-22.681-30.855-1.444.758,13.639,35.661,12.156,36.319-1.45.644-18.418-33.394-19.858-32.745s12.855,35.893,11.419,36.552-18.896-33.129-20.326-32.456,13.493,35.654,12.069,36.343-19.593-32.724-21.009-32.018,14.366,35.308,12.959,36.035-20.494-32.17-21.891-31.421,15.448,34.845,14.063,35.618c-1.404.783-19.976-32.385-21.451-31.714-1.462.665,11.861,36.264,10.353,36.856-1.497.588-16.432-34.4-17.952-33.848s9.905,36.818,8.388,37.367-16.412-34.456-17.91-33.871c-1.51.589,11.723,36.222,10.259,36.883-1.477.667-19.92-32.575-21.327-31.798-1.414.78,17.33,33.797,16.01,34.726s-23.949-29.641-25.316-28.753c-1.351.878,17.625,33.831,16.241,34.687-1.373.85-22.647-30.685-24.034-29.84s17.125,34.064,15.747,34.918-23.098-30.374-24.455-29.493,18.537,33.284,17.214,34.211c-1.331.933-25.227-28.65-26.5-27.657-1.282.999,21.816,31.182,20.612,32.259-1.62,1.448-30.298-23.419-31.743-21.716-1.403,1.654,27.458,26.411,26.2,28.257-1.225,1.795-34.566-16.486-35.673-14.555-1.086,1.894,31.358,21.789,30.367,23.772-.982,1.964-36.237-12.344-37.143-10.335s33.051,19.219,32.202,21.237c-.863,2.051-36.808-10.444-37.628-8.432-.847,2.078,33.484,18.539,32.664,20.528-.642,1.555-37.027-9.297-37.432-7.845-.45,1.614,36.418,10.448,36.245,11.954-.189,1.64-38.036,2.526-37.916,4.065.125,1.604,37.617-3.56,38.054-2.036.432,1.505-34.31,16.588-33.595,18.046.679,1.384,34.337-16.168,35.25-14.801.852,1.274-28.751,25.074-27.712,26.355.966,1.191,30.755-22.438,31.871-21.224.954,1.038-26.458,27.398-25.541,28.455.924,1.065,30.618-22.676,31.527-21.614.918,1.072-26.821,27.092-25.895,28.137.936,1.057,29.797-23.676,30.765-22.67.977,1.016-24.49,29.237-23.454,30.178s26.3-27.412,27.423-26.568c1.116.838-18.708,33.222-17.486,33.936,1.194.697,19.395-32.592,20.714-32.037,1.338.563-12.929,35.812-11.579,36.462,1.314.633,19.506-32.75,20.833-32.073,1.307.667-14.65,35.194-13.33,35.868s19.553-32.688,20.881-32.044-13.139,35.812-11.79,36.395c1.365.589,16.608-34.217,17.989-33.728,1.403.496-8.122,37.278-6.7,37.633,1.44.359,9.748-36.664,11.209-36.489,1.451.174-.518,38.132.957,38.223,1.461.091,4.402-37.817,5.877-37.794s3.056,38.008,4.528,37.977,1.578-38.059,3.044-38.133c1.475-.074,5.249,37.762,6.707,37.658,1.479-.105-.003-38.107,1.449-38.23,1.483-.125,6.241,37.601,7.685,37.472,1.49-.133-.348-38.121,1.088-38.243,1.577-.134,9.807,36.811,11.331,36.389,1.506-.417-9.534-36.745-8.066-37.371,1.435-.612,19.151,32.988,20.561,32.246,1.386-.729-15.551-34.792-14.177-35.583,1.367-.786,21.638,31.377,23.006,30.594,1.378-.789-15.427-34.916-14.037-35.637,1.416-.734,18.856,33.005,20.297,32.408,1.473-.61-9.092-37.072-7.579-37.466,1.497-.39,10.596,36.496,12.141,36.267,1.527-.226-1.189-38.125.369-38.246,1.542-.12,5.394,37.723,6.952,37.656s1.494-38.087,3.046-38.151,5.271,37.794,6.813,37.682c1.559-.113-.869-38.033.66-38.245,1.548-.214,10.212,36.78,11.713,36.412,1.509-.37-8.618-36.917-7.172-37.497,1.426-.572,16.977,34.136,18.409,33.564s-11.255-36.422-9.825-36.996,17.092,34.085,18.518,33.504-11.635-36.297-10.215-36.89,17.703,33.777,19.114,33.166-12.548-35.984-11.148-36.618,18.813,33.177,20.199,32.516-14.01-35.432-12.641-36.127c1.431-.727,21.114,31.787,22.502,30.966,1.379-.816-17.363-33.907-16.014-34.793,1.34-.88,23.992,29.659,25.313,28.734s-19.379-32.839-18.071-33.781,24.782,28.975,26.091,28.037-19.245-32.946-17.921-33.859,23.716,29.816,25.068,28.948-16.997-34.177-15.603-34.977,22.442,30.859,23.797,29.994-18.289-33.433-16.964-34.342,24.434,29.29,25.741,28.355-19.6-32.713-18.3-33.655,24.792,28.962,26.097,28.03-19.158-32.996-17.835-33.902,23.595,29.912,24.947,29.052-16.919-34.213-15.528-35.009,20.657,31.983,22.103,31.271-13.1-35.837-11.622-36.482,17.65,33.781,19.145,33.18-10.926-36.542-9.423-37.121,16.699,34.294,18.199,33.713-11.013-36.489-9.525-37.094,17.865,33.725,19.33,33.072c1.474-.656-13.383-35.649-11.951-36.374s20.233,32.333,21.654,31.59-14.851-35.123-13.435-35.872,20.585,32.097,22.002,31.35-14.728-35.187-13.304-35.921,19.986,32.458,21.421,31.748-13.552-35.667-12.101-36.342,18.382,33.374,19.854,32.746-11.248-36.467-9.752-37.036,15.557,34.76,17.081,34.272-7.709-37.37-6.163-37.79,12.428,36.022,13.989,35.655-5.107-37.804-3.537-38.132,10.623,36.615,12.197,36.312-3.946-37.931-2.372-38.225,10.205,36.751,11.778,36.451-4.224-37.885-2.655-38.206c1.579-.323,11.797,36.288,13.38,35.872,1.56-.41-7.083-37.455-5.515-37.917,1.551-.458,13.986,35.477,15.546,35.005s-7.627-37.388-6.064-37.836,12.926,35.834,14.501,35.445-4.858-37.869-3.264-38.165,8.586,37.049,10.201,36.885,1.385-38.155,3.015-38.149c1.462.005,1.673,38.02,3.134,38.111s6.192-37.626,7.647-37.465-1.994,38.03-.547,38.246,9.015-37.044,10.454-36.789-4.09,37.882-2.658,38.162c1.44.282,10.318-36.691,11.746-36.4,1.44.293-4.668,37.832-3.243,38.118,1.443.29,10.121-36.73,11.546-36.463,1.436.269-6.474,37.398-5.091,37.844s16.079-34.569,17.421-33.991c1.33.573-13.484,35.588-12.181,36.25,1.292.657,20.349-32.234,21.627-31.53s-15.864,34.66-14.592,35.368,20.633-32.007,21.917-31.332c1.293.68-14.173,35.417-12.858,36.021,1.328.61,17.023-33.978,18.386-33.488s-8.268,37.217-6.841,37.574c1.409.353,10.89-36.467,12.337-36.201,1.431.263-3.408,37.966-1.958,38.186s8.594-37.142,10.04-36.923-3.363,37.926-1.93,38.188c1.446.264,10.863-36.573,12.274-36.223,1.427.354-8.081,37.115-6.709,37.601s17.716-33.773,19.021-33.106c1.288.658-14.623,35.195-13.322,35.852,1.292.652,19.699-32.626,20.999-31.971s-14.59,35.202-13.295,35.862,19.997-32.453,21.285-31.781-15.236,34.919-13.958,35.608,20.91-31.879,22.174-31.166-16.549,34.306-15.304,35.049,22.427-30.837,23.649-30.059-18.438,33.328-17.236,34.142,24.053-29.576,25.235-28.735-19.918,32.478-18.75,33.337,25.013-28.76,26.171-27.889-20.616,32.05-19.463,32.927,25.306-28.493,26.458-27.617-20.593,32.075-19.437,32.943,24.951-28.792,26.116-27.939-19.824,32.559-18.64,33.393,24.071-29.537,25.263-28.718-19.052,33.007-17.856,33.82,23.772-29.791,24.966-28.978-19.135,32.948-17.948,33.771,24.244-29.419,25.419-28.58-20.076,32.37-18.921,33.233,25.481-28.364,26.612-27.468c1.152.913-23.181,30.053-22.15,31.112,1.02,1.048,30.352-23.075,31.286-21.925.923,1.136-28.294,25.478-27.423,26.673.865,1.188,32.641-19.68,33.485-18.472s-29.303,24.406-28.447,25.595c.866,1.204,32.042-20.531,32.951-19.388.925,1.164-26.788,27.174-25.785,28.232,1.02,1.077,27.862-25.727,28.998-24.804.934.758-22.024,31.063-21.086,31.818s25.653-28.135,26.594-27.383-21.798,31.221-20.855,31.97,25.493-28.281,26.438-27.534-21.664,31.314-20.718,32.06,25.417-28.351,26.363-27.606-21.624,31.339-20.679,32.084,25.421-28.348,26.365-27.603c.974.769-18.779,33.07-17.674,33.667,1.082.585,18.283-33.268,19.455-32.801,1.145.456-10.57,36.591-9.373,36.979,1.179.382,13.679-35.535,14.876-35.177s-8.796,37.028-7.613,37.403c1.198.38,14.922-35.074,16.074-34.633,1.178.451-13.131,35.601-12.036,36.161,1.119.573,22.147-30.969,23.143-30.233.108.08-22.109,30.907-22.017,30.972.115.082,21.762-31.145,21.851-31.085.131.087-19.436,32.623-19.357,32.666.207.114-4.439-3.531-4.582-3.683-.06-.063,26.098-27.559,25.98-27.661-.08-.069-24.519,29.022-24.625,28.937-.088-.07,23.296-30.021,23.191-30.102-.092-.071-23.06,30.201-23.165,30.123-1.151-.852,21.034-31.729,19.925-32.634s-26.728,27.183-27.806,26.239,23.217-30.201,22.16-31.17-27.922,25.938-28.968,24.959,23.852-29.727,22.805-30.704-27.82,26.022-28.88,25.06,23.034-30.383,21.949-31.317-26.428,27.401-27.548,26.508c-1.159-.925,18.43-33.316,17.101-34.031-1.295-.697-18.64,33.096-20.05,32.539-1.372-.542,10.037-36.782,8.601-37.246-1.413-.457-14.177,35.381-15.611,34.949s8.504-37.123,7.091-37.582c-1.435-.467-15.791,34.744-17.161,34.196-1.406-.563,13.408-35.494,12.116-36.2-1.323-.723-23.652,29.894-24.805,28.959-1.112-.901,22.148-30.984,21.064-31.916s-27.224,26.678-28.29,25.724,23.384-30.083,22.329-31.049-27.8,26.061-28.853,25.093,23.519-29.994,22.46-30.954-27.429,26.432-28.503,25.488,22.561-30.734,21.463-31.651-26.067,27.752-27.196,26.873,20.672-32.03,19.526-32.872-24.484,29.18-25.648,28.363,19.255-32.893,18.077-33.693-23.568,29.939-24.753,29.15,18.644-33.234,17.457-34.019-23.406,30.077-24.591,29.287,18.883-33.088,17.705-33.891-24.009,29.608-25.175,28.785c-1.179-.833,21.01-31.677,19.909-32.621-1.094-.937-27.765,26.128-28.805,25.116-1.033-1.005,24.896-28.829,23.891-29.873s-29.456,24.171-30.452,23.124,25.231-28.594,24.214-29.615c-1.024-1.029-28.283,25.452-29.35,24.486-1.076-.974,22.117-31.083,20.973-31.958s-23.63,29.702-24.872,28.959c-1.232-.737,17.302-33.944,16.077-34.703s-22.589,30.695-23.807,29.927,17.837-33.68,16.62-34.447-22.552,30.707-23.775,29.951,17.242-34.001,16.007-34.735-21.477,31.451-22.73,30.749,15.484-34.845,14.207-35.505-19.275,32.826-20.58,32.221,13.095-35.799,11.774-36.386c-1.314-.584-17.807,33.679-19.135,33.113s11.972-36.19,10.635-36.736-16.741,34.221-18.086,33.697,10.813-36.554,9.461-37.055-15.629,34.742-16.989,34.263,9.605-36.89,8.238-37.346-14.455,35.246-15.83,34.814c-1.486-.468,8.297-37.221,6.801-37.68s-13.923,35.483-15.422,35.042,7.448-37.406,5.944-37.824-12.818,35.889-14.329,35.502,5.96-37.678,4.442-38.028-11.057,36.46-12.584,36.154c-1.536-.308,3.755-37.966,2.22-38.22-1.546-.255-8.534,37.12-10.078,36.928s.577-38.148-.983-38.257-4.917,37.768-6.48,37.729-2.85-38.04-4.413-38.023-2.181,38.044-3.742,38.104-4.943-37.816-6.501-37.726-.715,38.115-2.27,38.223-5.791-37.685-7.343-37.573c-1.561.113-.479,38.132-2.03,38.236s-8.047-37.278-9.566-36.978,6.157,37.515,4.666,37.965c-1.477.446-15.111-35.023-16.571-34.475-1.444.542,11.099,36.451,9.662,37.05-1.427.595-17.591-33.819-19.022-33.211s11.654,36.327,10.214,36.905-16.204-34.448-17.667-33.94,8.147,37.289,6.649,37.686c-1.515.401-10.945-36.41-12.504-36.159-1.544.249,1.751,38.107.179,38.259-1.559.151-6.2-37.605-7.772-37.502s-.662,38.113-2.23,38.215-6.203-37.655-7.761-37.505c-1.574.152,1.711,38.01.168,38.258-1.56.252-11.005-36.555-12.518-36.153s9.176,36.797,7.721,37.403-19.387-32.852-20.762-32.089c-1.367.759,17.061,34.006,15.749,34.881-1.3.867-24.46-29.271-25.725-28.33-1.256.934,20.535,32.115,19.295,33.083s-25.808-28.05-27.048-27.089,20.333,32.292,19.067,33.213c-1.274.928-24.013-29.525-25.328-28.68-1.326.851,16.398,34.472,15.011,35.198-1.374.719-21.092-31.786-22.428-31.008s16.997,34.098,15.686,34.92-23.171-30.29-24.463-29.438,18.507,33.328,17.224,34.193-23.807-29.773-25.09-28.908,18.47,33.368,17.177,34.217-23.062-30.328-24.375-29.51,16.875,34.216,15.533,34.988c-1.206.693-20.932-31.815-22.167-31.148-1.223.661,15.303,34.903,14.057,35.547-1.236.639-19.755-32.574-21.007-31.944-1.242.626,14.544,35.217,13.291,35.843-1.246.622-19.53-32.722-20.781-32.092-1.244.627,14.774,35.111,13.53,35.753s-20.191-32.327-21.424-31.664,15.928,34.59,14.711,35.281c-1.225.696-19.598-32.557-20.896-31.979-1.283.571,11.647,36.298,10.311,36.786-1.32.482-14.964-35.013-16.317-34.581-1.342.429,8.587,37.126,7.23,37.536s-13.858-35.511-15.207-35.091,9.194,36.942,7.862,37.405c-1.34.466-16.181-34.537-17.482-33.998-1.31.543,13.416,35.555,12.164,36.203s-21.066-31.773-22.277-31.038c-1.201.729,18.033,33.53,16.856,34.317-1.169.782-23.815-29.753-24.972-28.941s19.568,32.703,18.416,33.516-23.92-29.633-25.085-28.843c-1.172.794,18.324,33.442,17.13,34.183-1.203.747-21.423-31.427-22.661-30.762-1.246.669,13.979,35.484,12.686,36.04s-17.054-34.047-18.368-33.53,10.812,36.552,9.485,37.034-15.251-34.903-16.586-34.449,9.26,36.971,7.92,37.402-14.128-35.381-15.471-34.965,8.425,37.164,7.08,37.571c-1.353.409-13.682-35.564-15.025-35.16-1.355.408,8.315,37.182,6.975,37.591-1.355.413-11.62-36.142-13.01-35.893s2.216,38.055.804,38.178c-1.401.123-4.982-37.727-6.4-37.689-1.408.038-2.409,38.037-3.824,38.029s-2.52-38.027-3.931-38.042-2.844,37.973-4.251,37.987c-1.42.015-4.157-37.912-5.558-37.828-1.418.085.947,37.996-.444,38.191-1.378.193-8.731-37.101-10.102-36.857s4.297,37.85,2.932,38.121-10.155-36.719-11.519-36.446,4.418,37.861,3.05,38.112-8.947-37-10.322-36.796,1.805,38.089.42,38.22-4.996-37.693-6.389-37.661c-1.385.032-3.561,37.965-4.958,37.874s.329-38.071-1.063-38.21-7.178,37.438-8.565,37.252,2.867-37.968,1.486-38.197c-1.373-.228-9.524,36.909-10.897,36.639-1.366-.269,5.122-37.733,3.755-38.042-1.357-.307-11.573,36.317-12.931,35.973-1.349-.342,7.094-37.416,5.744-37.794-1.34-.375-13.337,35.705-14.678,35.297-1.135-.346,8.222-37.185,7.043-37.505-1.15-.312-12.092,36.103-13.268,35.797-1.159-.302,7.408-37.338,6.24-37.652-1.162-.313-12.652,35.931-13.808,35.589s9.237-36.899,8.1-37.288c-1.145-.392-15.675,34.728-16.783,34.271-1.12-.462,13.692-35.435,12.626-35.982-1.076-.552-21.171,31.669-22.177,31.013-1.016-.663,21.263-31.324,20.385-32.128-.883-.809-29.164,24.453-29.932,23.527-.76-.916,28.966-24.551,28.296-25.556-.66-.989-33.619,17.895-34.215,16.844-.588-1.037,32.305-20.099,31.758-21.173-.543-1.065-35.084,14.8-35.609,13.721s33.078-18.879,32.549-19.951c-.534-1.082-34.887,15.178-35.446,14.128-.619-1.164,32.378-20.045,31.772-21.206-.614-1.176-35.116,14.81-35.689,13.642-.588-1.2,33.337-18.332,32.822-19.518-.536-1.233-36.385,11.386-36.809,10.175-.446-1.277,35.642-13.021,35.359-14.267-.3-1.32-37.996,2.644-38.066,1.367-.074-1.337,37.661-.336,37.891-1.615s-35.161-14.199-34.573-15.41c.561-1.155,33.492,17.522,34.296,16.46.77-1.016-27.019-26.826-26.08-27.775.899-.909,27.747,25.986,28.755,25.122.977-.839-22.088-31.041-21.051-31.853,1.024-.802,25.251,28.513,26.293,27.724s-21.036-31.733-20.013-32.528c1.045-.811,26,27.878,26.979,27.049,1.019-.863-23.726-29.672-22.828-30.57,1.172-1.172,29.626,24.053,30.766,22.836,1.134-1.21-25.721-28.152-24.606-29.389s30.506,22.898,31.613,21.657-26.047-27.883-24.932-29.115,30.138,23.342,31.278,22.136-24.865-28.965-23.685-30.131,28.427,25.35,29.662,24.243-21.935-31.256-20.631-32.284c1.322-1.042,24.012,29.386,25.47,28.541,1.445-.838-14.379-35.355-12.835-36.05,1.522-.685,17.56,33.801,19.144,33.206,1.567-.588-9.682-36.906-8.086-37.452s15.57,34.844,17.157,34.294c1.595-.553-9.913-36.786-8.354-37.391,1.579-.612,18.127,33.626,19.635,32.912,1.53-.724-15.089-34.855-13.666-35.734,1.436-.886,24.913,28.9,26.237,27.802,1.295-1.073-22.957-30.353-21.736-31.564,1.199-1.188,29.715,23.947,30.876,22.687,1.151-1.249-25.734-28.179-24.589-29.439s30.022,23.47,31.198,22.253c1.194-1.235-23.933-29.784-22.679-30.908,1.281-1.149,26.197,27.478,27.576,26.511,1.4-.982-16.171-34.586-14.633-35.313,1.474-.696,18.967,33.077,20.456,32.397s-12.63-35.995-11.135-36.659,18.271,33.472,19.771,32.82-12.056-36.188-10.554-36.831,17.912,33.671,19.416,33.032-11.839-36.256-10.335-36.894,17.882,33.692,19.383,33.051-11.979-36.205-10.481-36.852c1.52-.656,15.942,34.479,17.549,34.011,1.584-.462-5.931-37.7-4.289-38.037,1.619-.332,10.069,36.76,11.719,36.496,1.639-.262-2.53-38.055-.884-38.302s9.399,37.003,11.029,36.717c1.65-.289-4.405-37.808-2.8-38.191,1.631-.389,13.892,35.583,15.45,35.04,1.577-.549-11.909-35.991-10.435-36.758s22.791,30.591,24.129,29.621-21.326-31.464-20.095-32.583c1.215-1.104,28.909,24.912,30.059,23.708,1.135-1.189-25.706-28.15-24.603-29.391,1.096-1.234,30.641,22.7,31.735,21.459s-25.938-28.013-24.813-29.217c1.134-1.215,29.229,24.377,30.424,23.248,1.208-1.142-22.221-31.065-20.919-32.072,1.042-.806,24.231,29.307,25.337,28.575,1.098-.726-18.035-33.563-16.898-34.245,1.131-.678,21.558,31.401,22.704,30.739s-16.912-34.113-15.776-34.787,22.282,30.929,23.389,30.213c1.113-.72-19.495-32.637-18.44-33.426s26.264,27.629,27.241,26.738c.972-.886-25.347-28.215-24.481-29.227.859-1.005,31.389,21.614,32.167,20.562.784-1.06-29.678-23.791-28.963-24.892s33.772,17.655,34.431,16.518-31.941-20.698-31.327-21.861,35.047,14.948,35.629,13.768-33.072-18.881-32.51-20.07,35.523,13.748,36.078,12.556-33.306-18.497-32.745-19.687c.571-1.211,34.985,14.935,35.653,13.737.654-1.173-31.53-21.393-30.826-22.563.696-1.156,33.925,17.35,34.63,16.188s-31.323-21.632-30.651-22.806c.677-1.182,34.796,15.595,35.4,14.391.612-1.22-33.479-17.952-32.984-19.204.5-1.267,37.006,9.147,37.341,7.838s-36.744-9.129-36.617-10.489c.136-1.46,38.055-2.067,37.985-3.515s-37.956,1.136-38.195-.304c-.237-1.428,36.597-10.695,36.233-12.112-.361-1.403-37.26,7.76-37.708,6.37-.445-1.383,35.03-15.039,34.535-16.409s-36.674,10.369-37.182,9.009c-.513-1.371,34.656-15.812,34.169-17.169-.497-1.384-36.974,9.374-37.406,8.005-.427-1.356,35.435-14.017,35.014-15.386-.418-1.361-37.125,8.554-37.554,7.19s35.276-14.458,34.822-15.812-36.749,9.959-37.246,8.622,34.276-16.715,33.719-18.027-35.653,13.271-36.288,11.995,32.045-20.68,31.317-21.908-33.293,18.33-34.127,17.165,28.798-24.988,27.917-26.13c-.876-1.136-31.462,21.452-32.38,20.341s27.031-26.889,26.078-27.967-29.987,23.472-30.973,22.427,25.242-28.574,24.225-29.587-28.436,25.33-29.483,24.351c-1.055-.986,23.371-30.124,22.295-31.068-1.087-.953-26.749,27.103-27.855,26.197-1.249-1.024,19.098-33.004,17.719-33.814s-20.078,32.252-21.554,31.604c-1.458-.64,10.969-36.542,9.445-37.076-1.504-.527-14.889,35.081-16.429,34.609-1.53-.469,7.979-37.281,6.442-37.744s-14.543,35.289-16.06,34.784c-1.529-.508,10.075-36.694,8.596-37.292-1.493-.604-18.943,33.153-20.356,32.407-1.388-.732,15.28-34.92,13.916-35.672-1.373-.757-21.235,31.671-22.594,30.906s15.894-34.663,14.533-35.427-21.128,31.722-22.499,30.974,15.074-35.043,13.685-35.761-19.68,32.617-21.094,31.943c-1.407-.67,12.782-35.951,11.338-36.566-1.43-.609-16.867,34.132-18.344,33.59-1.485-.545,10.368-36.685,8.896-37.248s-16.651,34.307-18.12,33.733,10.894-36.544,9.424-37.12-16.691,34.276-18.163,33.71,10.465-36.679,8.987-37.227-15.81,34.677-17.299,34.159,9.029-37.067,7.526-37.547-13.951,35.45-15.47,35.021c-1.632-.461,6.301-37.65,4.659-38.041s-11.499,36.346-13.154,36.008,3.828-37.971,2.163-38.27-9.759,36.871-11.428,36.597,2.71-38.054,1.039-38.319-9.348,36.994-11.018,36.723,2.976-38.019,1.309-38.31-10.273,36.761-11.934,36.434,4.661-37.836,3.01-38.22-12.313,36.121-13.955,35.701,6.308-37.623,4.67-38.058-12.98,35.867-14.619,35.437,6.076-37.682,4.431-38.086-11.845,36.231-13.501,35.873,3.949-37.978,2.278-38.268-8.856,37.044-10.542,36.842.857-38.153-.827-38.328-7.047,37.483-8.734,37.33-.184-38.159-1.873-38.291-6.163,37.642-7.854,37.526-.933-38.145-2.625-38.247-5.569,37.738-7.262,37.645-1.383-38.128-3.076-38.214-5.272,37.784-6.966,37.701c-1.703-.083.27-38.04-1.436-38.29-1.685-.247-10.072,36.823-11.759,36.464-1.668-.354,5.187-37.777,3.516-38.192-1.66-.412-12.588,36.011-14.251,35.587s5.668-37.759,4.002-38.147c-1.677-.39-11.054,36.45-12.733,36.146-1.695-.308,1.909-38.158.211-38.329-1.71-.172-5.133,37.641-6.846,37.658-1.735.018-6.948-37.514-8.669-37.211-1.694.298,5.308,37.645,3.624,38.144-1.649.489-15.301-34.975-16.944-34.365-1.62.601,10.467,36.683,8.85,37.334s-17.246-34.012-18.86-33.38c-1.629.638,9.742,36.945,8.109,37.496-1.664.562-13.821-35.422-15.492-35.023-1.706.407,2.78,38.108,1.063,38.269-1.665.157-7.037-37.499-8.685-37.33-1.662.17.744,38.129-.905,38.315-1.658.187-7.782-37.354-9.43-37.148s1.647,38.097,0,38.325-8.785-37.133-10.43-36.88,2.804,38.026,1.162,38.307-10.009-36.823-11.649-36.512c-1.629.309,4.165,37.899,2.529,38.241-1.214.254-7.888-37.115-9.138-37.012-1.232.101-.911,38.077-2.166,38.078-1.239.001-1.743-38.019-2.993-38.07s-4.101,37.852-5.345,37.796-1.397-38.083-2.635-38.099c-1.256-.017-1.659,37.966-2.892,38.037-1.254.072-6.859-37.482-8.077-37.27-1.229.215,7.053,37.183,5.873,37.592-1.16.402-15.837-34.647-16.97-34.174s13.216,35.673,12.106,36.2-19.117-32.947-20.208-32.38,15.728,34.665,14.651,35.256-20.597-32.031-21.667-31.429,16.453,34.346,15.383,34.946-20.472-32.092-21.55-31.508,15.48,34.809,14.388,35.363c-1.07.543-21.154-31.656-22.154-30.997s20.213,32.182,19.267,32.923c-.939.736-26.06-27.773-26.966-26.983-.901.785,23.49,29.956,22.603,30.765s-27.292-26.533-28.18-25.732,23.178,30.238,22.264,31.007c-.919.774-25.4-28.278-26.359-27.568-.965.714,19.171,32.924,18.148,33.542-1.017.614-21.8-31.22-22.812-30.598s17.957,33.57,16.949,34.198-22.137-30.979-23.144-30.348,18.182,33.452,17.176,34.084-22.211-30.923-23.217-30.292,18.123,33.487,17.115,34.115-22.022-31.054-23.034-30.432,17.779,33.674,16.763,34.289c-1.225.742-21.504-31.422-22.766-30.724-1.255.693,15.329,34.906,14.046,35.563s-19.496-32.725-20.792-32.098,13.664,35.583,12.359,36.188-18.447-33.342-19.755-32.749,13.035,35.809,11.728,36.399c-1.315.593-18.363-33.401-19.664-32.804-1.313.602,13.466,35.636,12.177,36.249-1.3.618-18.698-33.194-20.022-32.586-1.311.602,12.922,35.865,11.591,36.449-1.324.581-17.571-33.798-18.911-33.242s11.473,36.359,10.122,36.883-15.975-34.574-17.336-34.088c-1.369.489,9.481,36.933,8.107,37.376-1.385.447-13.779-35.496-15.166-35.104-1.402.397,6.788,37.526,5.389,37.86s-10.82-36.499-12.269-36.222c-1.423.272,3.492,37.972,2.036,38.188-1.436.213-7.726-37.285-9.186-37.126-1.446.157.506,38.128-.957,38.233-1.454.104-4.95-37.757-6.413-37.705s-2.219,38.067-3.68,38.069-2.31-38.011-3.767-38.06c-1.465-.049-4.861,37.821-6.313,37.722-1.326-.091-.056-38.09-1.426-38.186-1.335-.093-5.556,37.699-6.915,37.588-1.342-.11.804-38.067-.546-38.207s-7.196,37.431-8.534,37.25c-1.348-.183,3.232-37.917,1.909-38.155-1.346-.242-10.488,36.655-11.789,36.341-1.334-.321,7.647-37.235,6.378-37.645-1.309-.423-16.028,34.593-17.247,34.06-1.243-.543,15.556-34.523,14.414-35.267-1.126-.734-24.92,28.811-25.962,27.921-1.021-.872,23.968-29.489,23.014-30.472-.938-.967-29.942,23.578-30.828,22.54-.879-1.031,27.654-26.166,26.814-27.233-.844-1.072-31.722,21.102-32.539,20.028-.831-1.092,28.507-25.294,27.691-26.351-.846-1.096-31.345,21.586-32.19,20.568-.823-.991,28.273-25.442,27.499-26.488-.766-1.035-32.707,19.562-33.416,18.472-.702-1.079,31.102-21.879,30.462-23.012-.632-1.12-34.916,15.275-35.479,14.1-.555-1.158,33.719-17.564,33.237-18.777-.473-1.192-36.678,10.347-37.074,9.102-.387-1.221,35.847-12.659,35.541-13.932-.299-1.243-37.772,5.058-37.988,3.764-.23-1.38,37.401-6.07,37.387-7.447s-37.813-4.684-37.658-6.065c.153-1.367,37.904,3.025,38.172,1.657.264-1.349-36.535-10.841-36.206-12.193.326-1.34,37.543,6.511,37.886,5.167s-36.229-11.706-35.915-13.053,37.816,4.931,38.057,3.572c.242-1.366-37.2-7.717-37.079-9.093.124-1.411,38.01-2.402,37.918-3.839-.091-1.407-37.976,1.496-38.211.073-.231-1.395,36.784-9.988,36.475-11.391-.307-1.39-37.687,5.664-38.013,4.275s36.439-11.038,36.148-12.424c-.296-1.413-37.968,3.725-38.165,2.33-.202-1.433,37.476-5.914,37.446-7.319-.031-1.44-37.723-5.385-37.504-6.786.205-1.311,37.241,6.653,37.693,5.373.438-1.242-33.996-17.171-33.396-18.393.583-1.186,34.78,15.43,35.451,14.255.661-1.157-31.492-21.427-30.807-22.581s34.287,16.666,34.937,15.505c.662-1.182-32.487-19.727-31.926-20.923.578-1.232,36.377,11.407,36.779,10.152.414-1.289-36.248-10.588-36.095-11.911.152-1.314,38.026-1.45,37.955-2.78-.069-1.308-37.926,1.628-38.155.308-.224-1.29,36.645-10.432,36.321-11.729-.318-1.276-37.378,7.258-37.743,5.979s35.815-12.935,35.455-14.208c-.363-1.282-37.458,7.092-37.768,5.814-.315-1.301,36.633-10.095,36.425-11.387-.213-1.322-38.103,1.015-38.147-.294-.059-1.758,37.705-6.108,37.525-7.841-.182-1.744-38.051,1.677-38.344-.046s36.609-10.881,36.216-12.589-37.627,6.039-38.105,4.35c-.475-1.677,35.341-14.461,34.792-16.13-.544-1.654-37.008,9.175-37.613,7.525-.6-1.635,34.269-16.825,33.62-18.459-.643-1.618-36.487,11.122-37.167,9.5-.698-1.665,34.057-17.146,33.432-18.887-.613-1.708-37.081,9.073-37.671,7.333-.586-1.731,34.74-15.888,34.132-17.61-.612-1.733-36.779,9.99-37.459,8.307-.692-1.712,33.175-19.012,32.365-20.629-.828-1.652-34.538,15.788-35.541,14.28-1.017-1.529,27.534-26.5,26.283-27.831-1.237-1.317-27.447,25.976-28.965,24.898-1.863-1.322,16.062-34.805,14.035-35.877-2.012-1.064-19.912,32.475-22.052,31.636-2.118-.83,7.833-37.521,5.622-38.149-2.191-.623-13.287,35.767-15.538,35.323s1.524-38.295-.746-38.578-8.111,37.323-10.384,37.179c-2.3-.145-3.213-38.185-5.478-38.206-2.319-.022-4.05,38.001-6.298,38.089-2.137.083-8.302-37.37-10.386-37s4.527,37.807,2.483,38.408c-2.026.596-16.214-34.671-18.207-33.904-1.971.758,10.651,36.664,8.703,37.535-1.932.864-19.849-32.696-21.768-31.773s12.711,36.071,10.802,36.998-20.074-32.501-21.994-31.617c-1.939.893,11.206,36.614,9.252,37.407-1.827.741-17.035-34.143-18.933-33.488-1.872.645,8.233,37.314,6.33,37.925s-15.575-34.915-17.462-34.29c-1.899.628,8.856,37.105,7.004,37.8-1.879.705-18.348-33.59-20.139-32.764-1.824.84,14.18,35.279,12.489,36.299-1.71,1.032-25.321-28.693-26.85-27.419-1.514,1.261,23.834,29.41,22.54,30.965-.19.228-33.687-9.168-33.647-8.859.034.257,35.601-11.142,35.755-10.864.132.239-30.858,21.913-30.663,22.146.183.218,27.529-26.026,27.749-25.831s-22.548,30.494-22.31,30.65c.256.167,17.945-33.248,18.198-33.147.298.119-6.11,36.832-5.851,36.827.307-.005-14.183-31.479-13.99-31.71.023-.02,2.698,27.271,2.754,27.316.031.025,25.406-28.162,25.443-28.124.03.031-27.699,25.996-27.667,26.032.031.035,28.869-24.704,28.899-24.668.031.037-29.396,24.077-29.366,24.114.031.039,29.978-23.35,30.006-23.314.033.042-30.222,23.033-30.197,23.067.051.068,1.086-23.85,1.132-23.902Z"/>
  </g>
</svg>